<?xml version="1.0" encoding="UTF-8"?>
<svg xmlns="http://www.w3.org/2000/svg" xmlns:xlink="http://www.w3.org/1999/xlink" width="3840" height="2160" viewBox="0 0 3840 2160">
<defs>
<g>
<g id="glyph-0-0">
<path d="M 3.90625 0 L 1.453125 0 L 1.453125 -0.359375 L 2.109375 -0.359375 L 2.109375 -1.171875 L 0.25 -1.171875 L 0.25 -1.515625 L 2.109375 -4.53125 L 3.234375 -4.53125 L 3.234375 -1.5625 L 4 -1.5625 L 4 -1.171875 L 3.234375 -1.171875 L 3.234375 -0.359375 L 3.90625 -0.359375 Z M 2.109375 -1.5625 L 2.109375 -3.71875 L 0.78125 -1.5625 Z "/>
</g>
<g id="glyph-0-1">
<path d="M 1.5 -2.640625 C 1.632812 -2.742188 1.78125 -2.820312 1.9375 -2.875 C 2.09375 -2.925781 2.269531 -2.953125 2.46875 -2.953125 C 2.914062 -2.953125 3.269531 -2.816406 3.53125 -2.546875 C 3.789062 -2.285156 3.921875 -1.921875 3.921875 -1.453125 C 3.921875 -0.960938 3.773438 -0.582031 3.484375 -0.3125 C 3.191406 -0.0390625 2.773438 0.09375 2.234375 0.09375 C 1.628906 0.09375 1.171875 -0.0859375 0.859375 -0.453125 C 0.546875 -0.828125 0.390625 -1.367188 0.390625 -2.078125 C 0.390625 -2.890625 0.5625 -3.5 0.90625 -3.90625 C 1.25 -4.320312 1.765625 -4.53125 2.453125 -4.53125 C 2.628906 -4.53125 2.820312 -4.515625 3.03125 -4.484375 C 3.238281 -4.453125 3.457031 -4.410156 3.6875 -4.359375 L 3.6875 -3.5625 L 3.328125 -3.5625 C 3.273438 -3.769531 3.179688 -3.925781 3.046875 -4.03125 C 2.910156 -4.132812 2.734375 -4.1875 2.515625 -4.1875 C 2.160156 -4.1875 1.898438 -4.0625 1.734375 -3.8125 C 1.578125 -3.570312 1.5 -3.179688 1.5 -2.640625 Z M 2.171875 -0.265625 C 2.367188 -0.265625 2.507812 -0.347656 2.59375 -0.515625 C 2.6875 -0.691406 2.734375 -0.992188 2.734375 -1.421875 C 2.734375 -1.859375 2.6875 -2.160156 2.59375 -2.328125 C 2.507812 -2.503906 2.367188 -2.59375 2.171875 -2.59375 C 1.960938 -2.59375 1.816406 -2.503906 1.734375 -2.328125 C 1.648438 -2.160156 1.609375 -1.859375 1.609375 -1.421875 C 1.609375 -0.992188 1.648438 -0.691406 1.734375 -0.515625 C 1.816406 -0.347656 1.960938 -0.265625 2.171875 -0.265625 Z "/>
</g>
<g id="glyph-0-2">
<path d="M 1.5625 -4.453125 L 2.234375 -4.453125 L 0.65625 0.5625 L 0 0.5625 Z "/>
</g>
</g>
</defs>
<g fill="rgb(24.705882%, 72.54902%, 31.372549%)" fill-opacity="1">
<use xlink:href="#glyph-0-0" x="30" y="25.737305"/>
<use xlink:href="#glyph-0-1" x="34" y="25.737305"/>
<use xlink:href="#glyph-0-2" x="38" y="25.737305"/>
<use xlink:href="#glyph-0-0" x="40" y="25.737305"/>
<use xlink:href="#glyph-0-1" x="44" y="25.737305"/>
</g>
</svg>
