<?xml version="1.0" encoding="UTF-8"?>
<svg xmlns="http://www.w3.org/2000/svg" xmlns:xlink="http://www.w3.org/1999/xlink" width="3840" height="2160" viewBox="0 0 3840 2160">
<defs>
<g>
<g id="glyph-0-0">
<path d="M 3.90625 0 L 1.453125 0 L 1.453125 -0.359375 L 2.109375 -0.359375 L 2.109375 -1.171875 L 0.25 -1.171875 L 0.25 -1.515625 L 2.109375 -4.53125 L 3.234375 -4.53125 L 3.234375 -1.5625 L 4 -1.5625 L 4 -1.171875 L 3.234375 -1.171875 L 3.234375 -0.359375 L 3.90625 -0.359375 Z M 2.109375 -1.5625 L 2.109375 -3.71875 L 0.78125 -1.5625 Z "/>
</g>
<g id="glyph-0-1">
<path d="M 2.125 -0.265625 C 2.363281 -0.265625 2.523438 -0.367188 2.609375 -0.578125 C 2.703125 -0.796875 2.75 -1.34375 2.75 -2.21875 C 2.75 -3.082031 2.703125 -3.625 2.609375 -3.84375 C 2.523438 -4.070312 2.363281 -4.1875 2.125 -4.1875 C 1.882812 -4.1875 1.71875 -4.078125 1.625 -3.859375 C 1.539062 -3.640625 1.5 -3.09375 1.5 -2.21875 C 1.5 -1.34375 1.539062 -0.796875 1.625 -0.578125 C 1.71875 -0.367188 1.882812 -0.265625 2.125 -0.265625 Z M 2.125 0.09375 C 1.53125 0.09375 1.070312 -0.101562 0.75 -0.5 C 0.4375 -0.90625 0.28125 -1.476562 0.28125 -2.21875 C 0.28125 -2.96875 0.4375 -3.539062 0.75 -3.9375 C 1.070312 -4.332031 1.53125 -4.53125 2.125 -4.53125 C 2.71875 -4.53125 3.171875 -4.332031 3.484375 -3.9375 C 3.804688 -3.539062 3.96875 -2.96875 3.96875 -2.21875 C 3.96875 -1.476562 3.804688 -0.90625 3.484375 -0.5 C 3.171875 -0.101562 2.71875 0.09375 2.125 0.09375 Z "/>
</g>
<g id="glyph-0-2">
<path d="M 1.5625 -4.453125 L 2.234375 -4.453125 L 0.65625 0.5625 L 0 0.5625 Z "/>
</g>
</g>
</defs>
<g fill="rgb(24.705882%, 72.54902%, 31.372549%)" fill-opacity="1">
<use xlink:href="#glyph-0-0" x="30" y="25.737305"/>
<use xlink:href="#glyph-0-1" x="34" y="25.737305"/>
<use xlink:href="#glyph-0-2" x="38" y="25.737305"/>
<use xlink:href="#glyph-0-0" x="40" y="25.737305"/>
<use xlink:href="#glyph-0-1" x="44" y="25.737305"/>
</g>
</svg>
