<?xml version="1.0" encoding="UTF-8"?>
<svg xmlns="http://www.w3.org/2000/svg" xmlns:xlink="http://www.w3.org/1999/xlink" width="3840" height="2160" viewBox="0 0 3840 2160">
<defs>
<g>
<g id="glyph-0-0">
<path d="M 5.375 -1.5 C 5.238281 -0.957031 4.988281 -0.550781 4.625 -0.28125 C 4.269531 -0.0195312 3.789062 0.109375 3.1875 0.109375 C 2.289062 0.109375 1.582031 -0.132812 1.0625 -0.625 C 0.550781 -1.125 0.296875 -1.789062 0.296875 -2.625 C 0.296875 -3.46875 0.550781 -4.132812 1.0625 -4.625 C 1.582031 -5.113281 2.289062 -5.359375 3.1875 -5.359375 C 3.5 -5.359375 3.820312 -5.316406 4.15625 -5.234375 C 4.5 -5.160156 4.859375 -5.050781 5.234375 -4.90625 L 5.234375 -3.609375 L 4.78125 -3.609375 C 4.695312 -4.046875 4.53125 -4.375 4.28125 -4.59375 C 4.039062 -4.820312 3.722656 -4.9375 3.328125 -4.9375 C 2.816406 -4.9375 2.4375 -4.742188 2.1875 -4.359375 C 1.9375 -3.984375 1.8125 -3.40625 1.8125 -2.625 C 1.8125 -1.84375 1.9375 -1.265625 2.1875 -0.890625 C 2.4375 -0.515625 2.816406 -0.328125 3.328125 -0.328125 C 3.679688 -0.328125 3.96875 -0.421875 4.1875 -0.609375 C 4.414062 -0.804688 4.578125 -1.101562 4.671875 -1.5 Z "/>
</g>
<g id="glyph-0-1">
<path d="M 0.34375 0 L 0.34375 -0.421875 L 1.015625 -0.421875 L 1.015625 -4.84375 L 0.34375 -4.84375 L 0.34375 -5.265625 L 5.03125 -5.265625 L 5.03125 -4.015625 L 4.546875 -4.015625 L 4.546875 -4.78125 L 2.375 -4.78125 L 2.375 -3.09375 L 3.71875 -3.09375 L 3.71875 -3.765625 L 4.1875 -3.765625 L 4.1875 -1.9375 L 3.71875 -1.9375 L 3.71875 -2.609375 L 2.375 -2.609375 L 2.375 -0.421875 L 3.203125 -0.421875 L 3.203125 0 Z "/>
</g>
<g id="glyph-0-2">
<path d="M 2.375 -0.421875 L 2.859375 -0.421875 C 3.410156 -0.421875 3.8125 -0.597656 4.0625 -0.953125 C 4.320312 -1.304688 4.453125 -1.867188 4.453125 -2.640625 C 4.453125 -3.398438 4.320312 -3.957031 4.0625 -4.3125 C 3.8125 -4.664062 3.410156 -4.84375 2.859375 -4.84375 L 2.375 -4.84375 Z M 0.34375 0 L 0.34375 -0.421875 L 1.015625 -0.421875 L 1.015625 -4.84375 L 0.34375 -4.84375 L 0.34375 -5.265625 L 3.03125 -5.265625 C 3.976562 -5.265625 4.703125 -5.035156 5.203125 -4.578125 C 5.703125 -4.128906 5.953125 -3.484375 5.953125 -2.640625 C 5.953125 -1.785156 5.703125 -1.128906 5.203125 -0.671875 C 4.703125 -0.222656 3.976562 0 3.03125 0 Z "/>
</g>
<g id="glyph-0-3">
</g>
<g id="glyph-0-4">
<path d="M 0.5625 -0.25 L 0.5625 -1.5 L 1 -1.5 C 1.070312 -1.101562 1.234375 -0.804688 1.484375 -0.609375 C 1.742188 -0.421875 2.097656 -0.328125 2.546875 -0.328125 C 2.910156 -0.328125 3.1875 -0.394531 3.375 -0.53125 C 3.5625 -0.664062 3.65625 -0.867188 3.65625 -1.140625 C 3.65625 -1.347656 3.585938 -1.507812 3.453125 -1.625 C 3.328125 -1.75 3.066406 -1.863281 2.671875 -1.96875 L 1.875 -2.15625 C 1.363281 -2.289062 1 -2.472656 0.78125 -2.703125 C 0.570312 -2.941406 0.46875 -3.273438 0.46875 -3.703125 C 0.46875 -4.222656 0.640625 -4.628906 0.984375 -4.921875 C 1.335938 -5.210938 1.828125 -5.359375 2.453125 -5.359375 C 2.765625 -5.359375 3.082031 -5.332031 3.40625 -5.28125 C 3.738281 -5.226562 4.085938 -5.148438 4.453125 -5.046875 L 4.453125 -3.890625 L 4 -3.890625 C 3.925781 -4.242188 3.773438 -4.503906 3.546875 -4.671875 C 3.316406 -4.847656 2.988281 -4.9375 2.5625 -4.9375 C 2.21875 -4.9375 1.957031 -4.875 1.78125 -4.75 C 1.601562 -4.625 1.515625 -4.441406 1.515625 -4.203125 C 1.515625 -3.984375 1.570312 -3.816406 1.6875 -3.703125 C 1.8125 -3.585938 2.113281 -3.472656 2.59375 -3.359375 L 3.390625 -3.15625 C 3.878906 -3.039062 4.234375 -2.851562 4.453125 -2.59375 C 4.671875 -2.332031 4.78125 -1.972656 4.78125 -1.515625 C 4.78125 -0.984375 4.597656 -0.578125 4.234375 -0.296875 C 3.867188 -0.0234375 3.328125 0.109375 2.609375 0.109375 C 2.265625 0.109375 1.921875 0.078125 1.578125 0.015625 C 1.242188 -0.046875 0.90625 -0.132812 0.5625 -0.25 Z "/>
</g>
<g id="glyph-0-5">
<path d="M 0.65625 -4.8125 C 0.65625 -5 0.722656 -5.15625 0.859375 -5.28125 C 0.992188 -5.414062 1.15625 -5.484375 1.34375 -5.484375 C 1.53125 -5.484375 1.6875 -5.414062 1.8125 -5.28125 C 1.945312 -5.15625 2.015625 -5 2.015625 -4.8125 C 2.015625 -4.625 1.945312 -4.460938 1.8125 -4.328125 C 1.6875 -4.203125 1.53125 -4.140625 1.34375 -4.140625 C 1.15625 -4.140625 0.992188 -4.203125 0.859375 -4.328125 C 0.722656 -4.460938 0.65625 -4.625 0.65625 -4.8125 Z M 2.03125 -0.421875 L 2.5625 -0.421875 L 2.5625 0 L 0.25 0 L 0.25 -0.421875 L 0.78125 -0.421875 L 0.78125 -3.328125 L 0.25 -3.328125 L 0.25 -3.75 L 2.03125 -3.75 Z "/>
</g>
<g id="glyph-0-6">
<path d="M 4.375 -3.140625 C 4.550781 -3.378906 4.738281 -3.554688 4.9375 -3.671875 C 5.144531 -3.785156 5.382812 -3.84375 5.65625 -3.84375 C 6.082031 -3.84375 6.398438 -3.722656 6.609375 -3.484375 C 6.828125 -3.242188 6.9375 -2.875 6.9375 -2.375 L 6.9375 -0.421875 L 7.46875 -0.421875 L 7.46875 0 L 5.234375 0 L 5.234375 -0.421875 L 5.6875 -0.421875 L 5.6875 -2.203125 C 5.6875 -2.660156 5.648438 -2.953125 5.578125 -3.078125 C 5.503906 -3.203125 5.375 -3.265625 5.1875 -3.265625 C 4.957031 -3.265625 4.78125 -3.175781 4.65625 -3 C 4.539062 -2.832031 4.484375 -2.59375 4.484375 -2.28125 L 4.484375 -0.421875 L 4.9375 -0.421875 L 4.9375 0 L 2.78125 0 L 2.78125 -0.421875 L 3.234375 -0.421875 L 3.234375 -2.203125 C 3.234375 -2.660156 3.195312 -2.953125 3.125 -3.078125 C 3.050781 -3.203125 2.921875 -3.265625 2.734375 -3.265625 C 2.503906 -3.265625 2.328125 -3.175781 2.203125 -3 C 2.085938 -2.832031 2.03125 -2.59375 2.03125 -2.28125 L 2.03125 -0.421875 L 2.46875 -0.421875 L 2.46875 0 L 0.25 0 L 0.25 -0.421875 L 0.78125 -0.421875 L 0.78125 -3.328125 L 0.25 -3.328125 L 0.25 -3.75 L 2.03125 -3.75 L 2.03125 -3.21875 C 2.175781 -3.4375 2.34375 -3.59375 2.53125 -3.6875 C 2.71875 -3.789062 2.941406 -3.84375 3.203125 -3.84375 C 3.503906 -3.84375 3.75 -3.785156 3.9375 -3.671875 C 4.125 -3.554688 4.269531 -3.378906 4.375 -3.140625 Z "/>
</g>
<g id="glyph-0-7">
<path d="M 4.46875 -3.75 L 4.46875 -0.421875 L 5 -0.421875 L 5 0 L 3.21875 0 L 3.21875 -0.53125 C 3.070312 -0.300781 2.898438 -0.132812 2.703125 -0.03125 C 2.515625 0.0625 2.273438 0.109375 1.984375 0.109375 C 1.554688 0.109375 1.234375 -0.015625 1.015625 -0.265625 C 0.804688 -0.515625 0.703125 -0.878906 0.703125 -1.359375 L 0.703125 -3.328125 L 0.171875 -3.328125 L 0.171875 -3.75 L 1.953125 -3.75 L 1.953125 -1.5625 C 1.953125 -1.09375 1.988281 -0.796875 2.0625 -0.671875 C 2.144531 -0.546875 2.285156 -0.484375 2.484375 -0.484375 C 2.742188 -0.484375 2.929688 -0.578125 3.046875 -0.765625 C 3.160156 -0.953125 3.21875 -1.242188 3.21875 -1.640625 L 3.21875 -3.328125 L 2.765625 -3.328125 L 2.765625 -3.75 Z "/>
</g>
<g id="glyph-0-8">
<path d="M 2.03125 -0.421875 L 2.5625 -0.421875 L 2.5625 0 L 0.25 0 L 0.25 -0.421875 L 0.78125 -0.421875 L 0.78125 -5.0625 L 0.25 -5.0625 L 0.25 -5.484375 L 2.03125 -5.484375 Z "/>
</g>
<g id="glyph-0-9">
<path d="M 3.96875 -2.296875 L 3.96875 -0.421875 L 4.515625 -0.421875 L 4.515625 0 L 2.734375 0 L 2.734375 -0.46875 C 2.566406 -0.28125 2.378906 -0.132812 2.171875 -0.03125 C 1.972656 0.0625 1.742188 0.109375 1.484375 0.109375 C 1.097656 0.109375 0.800781 0.00390625 0.59375 -0.203125 C 0.394531 -0.410156 0.296875 -0.707031 0.296875 -1.09375 C 0.296875 -1.507812 0.441406 -1.820312 0.734375 -2.03125 C 1.035156 -2.238281 1.484375 -2.34375 2.078125 -2.34375 L 2.734375 -2.34375 L 2.734375 -2.5625 C 2.734375 -2.875 2.660156 -3.097656 2.515625 -3.234375 C 2.367188 -3.378906 2.144531 -3.453125 1.84375 -3.453125 C 1.59375 -3.453125 1.398438 -3.398438 1.265625 -3.296875 C 1.128906 -3.203125 1.035156 -3.035156 0.984375 -2.796875 L 0.578125 -2.796875 L 0.578125 -3.609375 C 0.804688 -3.691406 1.039062 -3.75 1.28125 -3.78125 C 1.519531 -3.820312 1.769531 -3.84375 2.03125 -3.84375 C 2.707031 -3.84375 3.195312 -3.71875 3.5 -3.46875 C 3.8125 -3.226562 3.96875 -2.835938 3.96875 -2.296875 Z M 2.734375 -1.171875 L 2.734375 -1.921875 L 2.265625 -1.921875 C 2.023438 -1.921875 1.84375 -1.859375 1.71875 -1.734375 C 1.59375 -1.609375 1.53125 -1.425781 1.53125 -1.1875 C 1.53125 -0.945312 1.578125 -0.769531 1.671875 -0.65625 C 1.765625 -0.539062 1.90625 -0.484375 2.09375 -0.484375 C 2.28125 -0.484375 2.429688 -0.546875 2.546875 -0.671875 C 2.671875 -0.796875 2.734375 -0.960938 2.734375 -1.171875 Z "/>
</g>
<g id="glyph-0-10">
<path d="M 0.71875 -3.328125 L 0.171875 -3.328125 L 0.171875 -3.75 L 0.71875 -3.75 L 0.71875 -4.90625 L 1.96875 -4.90625 L 1.96875 -3.75 L 3 -3.75 L 3 -3.328125 L 1.96875 -3.328125 L 1.96875 -1.03125 C 1.96875 -0.695312 1.992188 -0.488281 2.046875 -0.40625 C 2.097656 -0.332031 2.191406 -0.296875 2.328125 -0.296875 C 2.472656 -0.296875 2.582031 -0.34375 2.65625 -0.4375 C 2.726562 -0.539062 2.769531 -0.703125 2.78125 -0.921875 L 3.296875 -0.921875 C 3.273438 -0.546875 3.171875 -0.28125 2.984375 -0.125 C 2.804688 0.03125 2.488281 0.109375 2.03125 0.109375 C 1.519531 0.109375 1.171875 0.03125 0.984375 -0.125 C 0.804688 -0.289062 0.71875 -0.59375 0.71875 -1.03125 Z "/>
</g>
<g id="glyph-0-11">
<path d="M 2.40625 -0.296875 C 2.675781 -0.296875 2.863281 -0.40625 2.96875 -0.625 C 3.070312 -0.851562 3.125 -1.269531 3.125 -1.875 C 3.125 -2.476562 3.070312 -2.890625 2.96875 -3.109375 C 2.863281 -3.335938 2.675781 -3.453125 2.40625 -3.453125 C 2.144531 -3.453125 1.957031 -3.335938 1.84375 -3.109375 C 1.738281 -2.878906 1.6875 -2.46875 1.6875 -1.875 C 1.6875 -1.28125 1.738281 -0.867188 1.84375 -0.640625 C 1.957031 -0.410156 2.144531 -0.296875 2.40625 -0.296875 Z M 2.40625 0.109375 C 1.75 0.109375 1.234375 -0.0664062 0.859375 -0.421875 C 0.484375 -0.773438 0.296875 -1.257812 0.296875 -1.875 C 0.296875 -2.488281 0.484375 -2.96875 0.859375 -3.3125 C 1.234375 -3.664062 1.75 -3.84375 2.40625 -3.84375 C 3.070312 -3.84375 3.59375 -3.664062 3.96875 -3.3125 C 4.34375 -2.96875 4.53125 -2.488281 4.53125 -1.875 C 4.53125 -1.257812 4.34375 -0.773438 3.96875 -0.421875 C 3.59375 -0.0664062 3.070312 0.109375 2.40625 0.109375 Z "/>
</g>
<g id="glyph-0-12">
<path d="M 0.25 0 L 0.25 -0.421875 L 0.78125 -0.421875 L 0.78125 -3.328125 L 0.25 -3.328125 L 0.25 -3.75 L 2.03125 -3.75 L 2.03125 -3.21875 C 2.175781 -3.4375 2.34375 -3.59375 2.53125 -3.6875 C 2.726562 -3.789062 2.972656 -3.84375 3.265625 -3.84375 C 3.691406 -3.84375 4.007812 -3.71875 4.21875 -3.46875 C 4.4375 -3.226562 4.546875 -2.863281 4.546875 -2.375 L 4.546875 -0.421875 L 5.078125 -0.421875 L 5.078125 0 L 2.84375 0 L 2.84375 -0.421875 L 3.296875 -0.421875 L 3.296875 -2.421875 C 3.296875 -2.734375 3.253906 -2.953125 3.171875 -3.078125 C 3.097656 -3.203125 2.957031 -3.265625 2.75 -3.265625 C 2.5 -3.265625 2.316406 -3.171875 2.203125 -2.984375 C 2.085938 -2.796875 2.03125 -2.503906 2.03125 -2.109375 L 2.03125 -0.421875 L 2.484375 -0.421875 L 2.484375 0 Z "/>
</g>
</g>
</defs>
<g fill="rgb(97.254902%, 31.764706%, 28.627451%)" fill-opacity="1">
<use xlink:href="#glyph-0-0" x="30" y="26.782227"/>
<use xlink:href="#glyph-0-1" x="36" y="26.782227"/>
<use xlink:href="#glyph-0-2" x="41" y="26.782227"/>
<use xlink:href="#glyph-0-3" x="47" y="26.782227"/>
<use xlink:href="#glyph-0-4" x="50" y="26.782227"/>
<use xlink:href="#glyph-0-5" x="55" y="26.782227"/>
<use xlink:href="#glyph-0-6" x="58" y="26.782227"/>
<use xlink:href="#glyph-0-7" x="66" y="26.782227"/>
<use xlink:href="#glyph-0-8" x="71" y="26.782227"/>
<use xlink:href="#glyph-0-9" x="74" y="26.782227"/>
<use xlink:href="#glyph-0-10" x="79" y="26.782227"/>
<use xlink:href="#glyph-0-5" x="82" y="26.782227"/>
<use xlink:href="#glyph-0-11" x="85" y="26.782227"/>
<use xlink:href="#glyph-0-12" x="90" y="26.782227"/>
</g>
</svg>
