<?xml version="1.0" encoding="UTF-8"?>
<svg xmlns="http://www.w3.org/2000/svg" xmlns:xlink="http://www.w3.org/1999/xlink" width="3840" height="2160" viewBox="0 0 3840 2160">
<defs>
<g>
<g id="glyph-0-0">
<path d="M 0.21875 0 L 0.21875 -0.203125 L 0.578125 -0.203125 L 0.578125 -2.640625 L 0.1875 -2.640625 L 0.1875 -2.84375 L 1.015625 -2.84375 L 2.015625 -0.8125 L 3.015625 -2.84375 L 3.78125 -2.84375 L 3.78125 -2.640625 L 3.40625 -2.640625 L 3.40625 -0.203125 L 3.765625 -0.203125 L 3.765625 0 L 2.65625 0 L 2.65625 -0.203125 L 3.015625 -0.203125 L 3.015625 -2.390625 L 2.046875 -0.421875 L 1.78125 -0.421875 L 0.8125 -2.390625 L 0.8125 -0.203125 L 1.171875 -0.203125 L 1.171875 0 Z "/>
</g>
<g id="glyph-0-1">
<path d="M 2.109375 -0.96875 L 0.609375 -0.96875 L 0.609375 -0.953125 C 0.609375 -0.679688 0.65625 -0.476562 0.75 -0.34375 C 0.851562 -0.207031 1.003906 -0.140625 1.203125 -0.140625 C 1.359375 -0.140625 1.484375 -0.175781 1.578125 -0.25 C 1.679688 -0.332031 1.753906 -0.453125 1.796875 -0.609375 L 2.078125 -0.609375 C 2.015625 -0.390625 1.910156 -0.222656 1.765625 -0.109375 C 1.617188 0.00390625 1.421875 0.0625 1.171875 0.0625 C 0.878906 0.0625 0.640625 -0.0351562 0.453125 -0.234375 C 0.273438 -0.429688 0.1875 -0.691406 0.1875 -1.015625 C 0.1875 -1.328125 0.273438 -1.582031 0.453125 -1.78125 C 0.628906 -1.976562 0.863281 -2.078125 1.15625 -2.078125 C 1.457031 -2.078125 1.6875 -1.984375 1.84375 -1.796875 C 2.007812 -1.609375 2.097656 -1.332031 2.109375 -0.96875 Z M 1.703125 -1.171875 C 1.691406 -1.410156 1.640625 -1.585938 1.546875 -1.703125 C 1.453125 -1.828125 1.320312 -1.890625 1.15625 -1.890625 C 0.988281 -1.890625 0.859375 -1.828125 0.765625 -1.703125 C 0.671875 -1.585938 0.617188 -1.410156 0.609375 -1.171875 Z "/>
</g>
<g id="glyph-0-2">
<path d="M 2.015625 -1.625 C 2.078125 -1.769531 2.160156 -1.878906 2.265625 -1.953125 C 2.378906 -2.035156 2.503906 -2.078125 2.640625 -2.078125 C 2.847656 -2.078125 3.003906 -2.007812 3.109375 -1.875 C 3.210938 -1.75 3.265625 -1.550781 3.265625 -1.28125 L 3.265625 -0.203125 L 3.578125 -0.203125 L 3.578125 0 L 2.609375 0 L 2.609375 -0.203125 L 2.921875 -0.203125 L 2.921875 -1.25 C 2.921875 -1.445312 2.890625 -1.585938 2.828125 -1.671875 C 2.765625 -1.765625 2.664062 -1.8125 2.53125 -1.8125 C 2.375 -1.8125 2.253906 -1.753906 2.171875 -1.640625 C 2.085938 -1.523438 2.046875 -1.351562 2.046875 -1.125 L 2.046875 -0.203125 L 2.34375 -0.203125 L 2.34375 0 L 1.390625 0 L 1.390625 -0.203125 L 1.703125 -0.203125 L 1.703125 -1.25 C 1.703125 -1.457031 1.671875 -1.601562 1.609375 -1.6875 C 1.546875 -1.769531 1.441406 -1.8125 1.296875 -1.8125 C 1.140625 -1.8125 1.019531 -1.753906 0.9375 -1.640625 C 0.863281 -1.523438 0.828125 -1.351562 0.828125 -1.125 L 0.828125 -0.203125 L 1.125 -0.203125 L 1.125 0 L 0.15625 0 L 0.15625 -0.203125 L 0.46875 -0.203125 L 0.46875 -1.8125 L 0.140625 -1.8125 L 0.140625 -2.015625 L 0.828125 -2.015625 L 0.828125 -1.65625 C 0.890625 -1.789062 0.96875 -1.894531 1.0625 -1.96875 C 1.164062 -2.039062 1.28125 -2.078125 1.40625 -2.078125 C 1.5625 -2.078125 1.691406 -2.035156 1.796875 -1.953125 C 1.910156 -1.878906 1.984375 -1.769531 2.015625 -1.625 Z "/>
</g>
<g id="glyph-0-3">
<path d="M 1.171875 -0.140625 C 1.359375 -0.140625 1.5 -0.210938 1.59375 -0.359375 C 1.6875 -0.503906 1.734375 -0.722656 1.734375 -1.015625 C 1.734375 -1.296875 1.6875 -1.507812 1.59375 -1.65625 C 1.5 -1.8125 1.359375 -1.890625 1.171875 -1.890625 C 0.984375 -1.890625 0.84375 -1.8125 0.75 -1.65625 C 0.65625 -1.507812 0.609375 -1.296875 0.609375 -1.015625 C 0.609375 -0.722656 0.65625 -0.503906 0.75 -0.359375 C 0.84375 -0.210938 0.984375 -0.140625 1.171875 -0.140625 Z M 1.171875 0.0625 C 0.878906 0.0625 0.640625 -0.0351562 0.453125 -0.234375 C 0.273438 -0.429688 0.1875 -0.691406 0.1875 -1.015625 C 0.1875 -1.335938 0.273438 -1.59375 0.453125 -1.78125 C 0.640625 -1.976562 0.878906 -2.078125 1.171875 -2.078125 C 1.460938 -2.078125 1.695312 -1.976562 1.875 -1.78125 C 2.050781 -1.59375 2.140625 -1.335938 2.140625 -1.015625 C 2.140625 -0.691406 2.050781 -0.429688 1.875 -0.234375 C 1.695312 -0.0351562 1.460938 0.0625 1.171875 0.0625 Z "/>
</g>
<g id="glyph-0-4">
<path d="M 1.859375 -2.015625 L 1.859375 -1.515625 L 1.65625 -1.515625 C 1.65625 -1.617188 1.628906 -1.691406 1.578125 -1.734375 C 1.523438 -1.785156 1.453125 -1.8125 1.359375 -1.8125 C 1.179688 -1.8125 1.046875 -1.75 0.953125 -1.625 C 0.867188 -1.507812 0.828125 -1.34375 0.828125 -1.125 L 0.828125 -0.203125 L 1.234375 -0.203125 L 1.234375 0 L 0.15625 0 L 0.15625 -0.203125 L 0.46875 -0.203125 L 0.46875 -1.8125 L 0.140625 -1.8125 L 0.140625 -2.015625 L 0.828125 -2.015625 L 0.828125 -1.65625 C 0.890625 -1.800781 0.972656 -1.90625 1.078125 -1.96875 C 1.191406 -2.039062 1.328125 -2.078125 1.484375 -2.078125 C 1.535156 -2.078125 1.59375 -2.070312 1.65625 -2.0625 C 1.71875 -2.050781 1.785156 -2.035156 1.859375 -2.015625 Z "/>
</g>
<g id="glyph-0-5">
<path d="M 0.84375 0.375 L 0.96875 0.03125 L 0.21875 -1.8125 L -0.015625 -1.8125 L -0.015625 -2.015625 L 0.921875 -2.015625 L 0.921875 -1.8125 L 0.59375 -1.8125 L 1.15625 -0.421875 L 1.734375 -1.8125 L 1.421875 -1.8125 L 1.421875 -2.015625 L 2.1875 -2.015625 L 2.1875 -1.8125 L 1.953125 -1.8125 L 1.03125 0.453125 C 0.96875 0.609375 0.894531 0.710938 0.8125 0.765625 C 0.738281 0.828125 0.632812 0.859375 0.5 0.859375 C 0.4375 0.859375 0.375 0.851562 0.3125 0.84375 C 0.25 0.832031 0.1875 0.820312 0.125 0.8125 L 0.125 0.421875 L 0.296875 0.421875 C 0.304688 0.503906 0.328125 0.5625 0.359375 0.59375 C 0.398438 0.632812 0.457031 0.65625 0.53125 0.65625 C 0.601562 0.65625 0.660156 0.632812 0.703125 0.59375 C 0.742188 0.5625 0.789062 0.488281 0.84375 0.375 Z "/>
</g>
<g id="glyph-0-6">
<path d="M 0.40625 -0.203125 C 0.40625 -0.265625 0.425781 -0.320312 0.46875 -0.375 C 0.519531 -0.425781 0.582031 -0.453125 0.65625 -0.453125 C 0.726562 -0.453125 0.785156 -0.425781 0.828125 -0.375 C 0.878906 -0.320312 0.90625 -0.265625 0.90625 -0.203125 C 0.90625 -0.128906 0.878906 -0.0664062 0.828125 -0.015625 C 0.785156 0.0351562 0.726562 0.0625 0.65625 0.0625 C 0.582031 0.0625 0.519531 0.0351562 0.46875 -0.015625 C 0.425781 -0.0664062 0.40625 -0.128906 0.40625 -0.203125 Z M 0.40625 -1.4375 C 0.40625 -1.507812 0.425781 -1.566406 0.46875 -1.609375 C 0.519531 -1.660156 0.582031 -1.6875 0.65625 -1.6875 C 0.726562 -1.6875 0.785156 -1.660156 0.828125 -1.609375 C 0.878906 -1.566406 0.90625 -1.507812 0.90625 -1.4375 C 0.90625 -1.363281 0.878906 -1.300781 0.828125 -1.25 C 0.785156 -1.207031 0.726562 -1.1875 0.65625 -1.1875 C 0.582031 -1.1875 0.519531 -1.207031 0.46875 -1.25 C 0.425781 -1.300781 0.40625 -1.363281 0.40625 -1.4375 Z "/>
</g>
<g id="glyph-0-7">
</g>
<g id="glyph-0-8">
<path d="M 0.78125 -1.03125 L 1.8125 -1.03125 L 1.296875 -2.375 Z M -0.015625 0 L -0.015625 -0.203125 L 0.21875 -0.203125 L 1.234375 -2.84375 L 1.5625 -2.84375 L 2.5625 -0.203125 L 2.84375 -0.203125 L 2.84375 0 L 1.8125 0 L 1.8125 -0.203125 L 2.125 -0.203125 L 1.890625 -0.828125 L 0.703125 -0.828125 L 0.46875 -0.203125 L 0.78125 -0.203125 L 0.78125 0 Z "/>
</g>
<g id="glyph-0-9">
<path d="M 0.796875 -0.203125 L 1.125 -0.203125 L 1.125 0 L 0.109375 0 L 0.109375 -0.203125 L 0.453125 -0.203125 L 0.453125 -2.75 L 0.109375 -2.75 L 0.109375 -2.953125 L 0.796875 -2.953125 Z "/>
</g>
<g id="glyph-0-10">
<path d="M 0.421875 -1.8125 L 0.109375 -1.8125 L 0.109375 -2.015625 L 0.421875 -2.015625 L 0.421875 -2.640625 L 0.765625 -2.640625 L 0.765625 -2.015625 L 1.421875 -2.015625 L 1.421875 -1.8125 L 0.765625 -1.8125 L 0.765625 -0.53125 C 0.765625 -0.363281 0.78125 -0.253906 0.8125 -0.203125 C 0.851562 -0.160156 0.914062 -0.140625 1 -0.140625 C 1.09375 -0.140625 1.160156 -0.164062 1.203125 -0.21875 C 1.242188 -0.269531 1.265625 -0.351562 1.265625 -0.46875 L 1.53125 -0.46875 C 1.519531 -0.289062 1.46875 -0.15625 1.375 -0.0625 C 1.289062 0.0195312 1.15625 0.0625 0.96875 0.0625 C 0.769531 0.0625 0.628906 0.015625 0.546875 -0.078125 C 0.460938 -0.171875 0.421875 -0.320312 0.421875 -0.53125 Z "/>
</g>
<g id="glyph-0-11">
<path d="M 0.21875 -0.109375 L 0.21875 -0.578125 L 0.421875 -0.578125 C 0.421875 -0.429688 0.460938 -0.320312 0.546875 -0.25 C 0.640625 -0.175781 0.773438 -0.140625 0.953125 -0.140625 C 1.109375 -0.140625 1.226562 -0.164062 1.3125 -0.21875 C 1.394531 -0.28125 1.4375 -0.367188 1.4375 -0.484375 C 1.4375 -0.566406 1.40625 -0.632812 1.34375 -0.6875 C 1.289062 -0.75 1.164062 -0.8125 0.96875 -0.875 L 0.71875 -0.953125 C 0.539062 -1.003906 0.410156 -1.070312 0.328125 -1.15625 C 0.253906 -1.238281 0.21875 -1.347656 0.21875 -1.484375 C 0.21875 -1.671875 0.285156 -1.816406 0.421875 -1.921875 C 0.554688 -2.023438 0.742188 -2.078125 0.984375 -2.078125 C 1.085938 -2.078125 1.195312 -2.0625 1.3125 -2.03125 C 1.4375 -2 1.5625 -1.957031 1.6875 -1.90625 L 1.6875 -1.46875 L 1.484375 -1.46875 C 1.484375 -1.601562 1.4375 -1.707031 1.34375 -1.78125 C 1.257812 -1.851562 1.144531 -1.890625 1 -1.890625 C 0.851562 -1.890625 0.738281 -1.863281 0.65625 -1.8125 C 0.582031 -1.757812 0.546875 -1.679688 0.546875 -1.578125 C 0.546875 -1.492188 0.570312 -1.425781 0.625 -1.375 C 0.6875 -1.320312 0.804688 -1.269531 0.984375 -1.21875 L 1.25 -1.125 C 1.445312 -1.070312 1.585938 -1 1.671875 -0.90625 C 1.753906 -0.8125 1.796875 -0.695312 1.796875 -0.5625 C 1.796875 -0.375 1.722656 -0.222656 1.578125 -0.109375 C 1.429688 0.00390625 1.226562 0.0625 0.96875 0.0625 C 0.84375 0.0625 0.71875 0.046875 0.59375 0.015625 C 0.46875 -0.015625 0.34375 -0.0546875 0.21875 -0.109375 Z "/>
</g>
<g id="glyph-0-12">
<path d="M 0.796875 -1.109375 L 0.796875 -0.90625 C 0.796875 -0.664062 0.84375 -0.476562 0.9375 -0.34375 C 1.03125 -0.21875 1.164062 -0.15625 1.34375 -0.15625 C 1.519531 -0.15625 1.65625 -0.226562 1.75 -0.375 C 1.84375 -0.519531 1.890625 -0.734375 1.890625 -1.015625 C 1.890625 -1.296875 1.84375 -1.503906 1.75 -1.640625 C 1.65625 -1.785156 1.519531 -1.859375 1.34375 -1.859375 C 1.164062 -1.859375 1.03125 -1.789062 0.9375 -1.65625 C 0.84375 -1.53125 0.796875 -1.347656 0.796875 -1.109375 Z M 0.453125 -1.8125 L 0.109375 -1.8125 L 0.109375 -2.015625 L 0.796875 -2.015625 L 0.796875 -1.703125 C 0.867188 -1.828125 0.957031 -1.921875 1.0625 -1.984375 C 1.164062 -2.046875 1.296875 -2.078125 1.453125 -2.078125 C 1.703125 -2.078125 1.90625 -1.976562 2.0625 -1.78125 C 2.21875 -1.582031 2.296875 -1.328125 2.296875 -1.015625 C 2.296875 -0.691406 2.21875 -0.429688 2.0625 -0.234375 C 1.90625 -0.0351562 1.703125 0.0625 1.453125 0.0625 C 1.296875 0.0625 1.164062 0.03125 1.0625 -0.03125 C 0.957031 -0.09375 0.867188 -0.1875 0.796875 -0.3125 L 0.796875 0.609375 L 1.125 0.609375 L 1.125 0.8125 L 0.109375 0.8125 L 0.109375 0.609375 L 0.453125 0.609375 Z "/>
</g>
<g id="glyph-0-13">
<path d="M 1.546875 -0.640625 L 1.546875 -1.0625 L 1.09375 -1.0625 C 0.925781 -1.0625 0.796875 -1.023438 0.703125 -0.953125 C 0.617188 -0.878906 0.578125 -0.765625 0.578125 -0.609375 C 0.578125 -0.460938 0.617188 -0.347656 0.703125 -0.265625 C 0.796875 -0.179688 0.914062 -0.140625 1.0625 -0.140625 C 1.207031 -0.140625 1.320312 -0.1875 1.40625 -0.28125 C 1.5 -0.375 1.546875 -0.492188 1.546875 -0.640625 Z M 1.890625 -1.265625 L 1.890625 -0.203125 L 2.203125 -0.203125 L 2.203125 0 L 1.546875 0 L 1.546875 -0.21875 C 1.472656 -0.125 1.382812 -0.0507812 1.28125 0 C 1.175781 0.0390625 1.054688 0.0625 0.921875 0.0625 C 0.703125 0.0625 0.523438 0.00390625 0.390625 -0.109375 C 0.253906 -0.234375 0.1875 -0.398438 0.1875 -0.609375 C 0.1875 -0.816406 0.257812 -0.976562 0.40625 -1.09375 C 0.5625 -1.207031 0.78125 -1.265625 1.0625 -1.265625 L 1.546875 -1.265625 L 1.546875 -1.40625 C 1.546875 -1.5625 1.5 -1.679688 1.40625 -1.765625 C 1.3125 -1.847656 1.179688 -1.890625 1.015625 -1.890625 C 0.878906 -1.890625 0.769531 -1.859375 0.6875 -1.796875 C 0.601562 -1.734375 0.550781 -1.640625 0.53125 -1.515625 L 0.34375 -1.515625 L 0.34375 -1.921875 C 0.46875 -1.972656 0.585938 -2.007812 0.703125 -2.03125 C 0.816406 -2.0625 0.929688 -2.078125 1.046875 -2.078125 C 1.316406 -2.078125 1.523438 -2.003906 1.671875 -1.859375 C 1.816406 -1.722656 1.890625 -1.523438 1.890625 -1.265625 Z "/>
</g>
<g id="glyph-0-14">
<path d="M 1.375 -2.015625 L 2.03125 -2.015625 L 2.03125 -0.203125 L 2.359375 -0.203125 L 2.359375 0 L 1.6875 0 L 1.6875 -0.359375 C 1.613281 -0.222656 1.523438 -0.117188 1.421875 -0.046875 C 1.328125 0.0234375 1.210938 0.0625 1.078125 0.0625 C 0.847656 0.0625 0.679688 0 0.578125 -0.125 C 0.472656 -0.257812 0.421875 -0.460938 0.421875 -0.734375 L 0.421875 -1.8125 L 0.109375 -1.8125 L 0.109375 -2.015625 L 0.765625 -2.015625 L 0.765625 -0.84375 C 0.765625 -0.59375 0.796875 -0.421875 0.859375 -0.328125 C 0.921875 -0.242188 1.03125 -0.203125 1.1875 -0.203125 C 1.34375 -0.203125 1.460938 -0.257812 1.546875 -0.375 C 1.640625 -0.5 1.6875 -0.675781 1.6875 -0.90625 L 1.6875 -1.8125 L 1.375 -1.8125 Z "/>
</g>
<g id="glyph-0-15">
<path d="M 0.15625 0 L 0.15625 -0.203125 L 0.46875 -0.203125 L 0.46875 -1.8125 L 0.140625 -1.8125 L 0.140625 -2.015625 L 0.828125 -2.015625 L 0.828125 -1.65625 C 0.890625 -1.789062 0.972656 -1.894531 1.078125 -1.96875 C 1.179688 -2.039062 1.300781 -2.078125 1.4375 -2.078125 C 1.65625 -2.078125 1.816406 -2.007812 1.921875 -1.875 C 2.023438 -1.75 2.078125 -1.550781 2.078125 -1.28125 L 2.078125 -0.203125 L 2.390625 -0.203125 L 2.390625 0 L 1.4375 0 L 1.4375 -0.203125 L 1.734375 -0.203125 L 1.734375 -1.171875 C 1.734375 -1.421875 1.703125 -1.585938 1.640625 -1.671875 C 1.578125 -1.765625 1.472656 -1.8125 1.328125 -1.8125 C 1.160156 -1.8125 1.035156 -1.753906 0.953125 -1.640625 C 0.867188 -1.523438 0.828125 -1.351562 0.828125 -1.125 L 0.828125 -0.203125 L 1.125 -0.203125 L 1.125 0 Z "/>
</g>
<g id="glyph-0-16">
<path d="M 2.046875 -0.203125 L 2.375 -0.203125 L 2.375 0 L 1.6875 0 L 1.6875 -0.3125 C 1.625 -0.1875 1.535156 -0.09375 1.421875 -0.03125 C 1.316406 0.03125 1.191406 0.0625 1.046875 0.0625 C 0.796875 0.0625 0.585938 -0.0351562 0.421875 -0.234375 C 0.265625 -0.429688 0.1875 -0.691406 0.1875 -1.015625 C 0.1875 -1.328125 0.265625 -1.582031 0.421875 -1.78125 C 0.585938 -1.976562 0.796875 -2.078125 1.046875 -2.078125 C 1.191406 -2.078125 1.316406 -2.046875 1.421875 -1.984375 C 1.535156 -1.921875 1.625 -1.828125 1.6875 -1.703125 L 1.6875 -2.75 L 1.359375 -2.75 L 1.359375 -2.953125 L 2.046875 -2.953125 Z M 1.6875 -0.90625 L 1.6875 -1.109375 C 1.6875 -1.347656 1.640625 -1.53125 1.546875 -1.65625 C 1.453125 -1.789062 1.316406 -1.859375 1.140625 -1.859375 C 0.960938 -1.859375 0.828125 -1.785156 0.734375 -1.640625 C 0.648438 -1.503906 0.609375 -1.296875 0.609375 -1.015625 C 0.609375 -0.734375 0.648438 -0.519531 0.734375 -0.375 C 0.828125 -0.226562 0.960938 -0.15625 1.140625 -0.15625 C 1.316406 -0.15625 1.453125 -0.21875 1.546875 -0.34375 C 1.640625 -0.476562 1.6875 -0.664062 1.6875 -0.90625 Z "/>
</g>
<g id="glyph-0-17">
<path d="M 1.359375 -0.96875 L 1.359375 -2.46875 L 0.390625 -0.96875 Z M 2.1875 0 L 0.90625 0 L 0.90625 -0.203125 L 1.359375 -0.203125 L 1.359375 -0.765625 L 0.125 -0.765625 L 0.125 -0.96875 L 1.359375 -2.890625 L 1.734375 -2.890625 L 1.734375 -0.96875 L 2.28125 -0.96875 L 2.28125 -0.765625 L 1.734375 -0.765625 L 1.734375 -0.203125 L 2.1875 -0.203125 Z "/>
</g>
<g id="glyph-0-18">
<path d="M 2.484375 -1.984375 C 2.441406 -2.222656 2.347656 -2.398438 2.203125 -2.515625 C 2.066406 -2.628906 1.875 -2.6875 1.625 -2.6875 C 1.300781 -2.6875 1.054688 -2.578125 0.890625 -2.359375 C 0.734375 -2.148438 0.65625 -1.835938 0.65625 -1.421875 C 0.65625 -1.003906 0.738281 -0.6875 0.90625 -0.46875 C 1.070312 -0.25 1.316406 -0.140625 1.640625 -0.140625 C 1.773438 -0.140625 1.90625 -0.15625 2.03125 -0.1875 C 2.164062 -0.226562 2.296875 -0.285156 2.421875 -0.359375 L 2.421875 -1.09375 L 1.875 -1.09375 L 1.875 -1.296875 L 2.796875 -1.296875 L 2.796875 -0.234375 C 2.628906 -0.140625 2.445312 -0.0664062 2.25 -0.015625 C 2.0625 0.0351562 1.859375 0.0625 1.640625 0.0625 C 1.203125 0.0625 0.851562 -0.0703125 0.59375 -0.34375 C 0.34375 -0.613281 0.21875 -0.972656 0.21875 -1.421875 C 0.21875 -1.867188 0.347656 -2.222656 0.609375 -2.484375 C 0.867188 -2.753906 1.21875 -2.890625 1.65625 -2.890625 C 1.8125 -2.890625 1.972656 -2.867188 2.140625 -2.828125 C 2.316406 -2.796875 2.503906 -2.738281 2.703125 -2.65625 L 2.703125 -1.984375 Z "/>
</g>
<g id="glyph-0-19">
<path d="M 0.96875 -0.203125 L 1.53125 -0.203125 C 1.757812 -0.203125 1.925781 -0.25 2.03125 -0.34375 C 2.132812 -0.445312 2.1875 -0.609375 2.1875 -0.828125 C 2.1875 -1.035156 2.132812 -1.1875 2.03125 -1.28125 C 1.925781 -1.382812 1.757812 -1.4375 1.53125 -1.4375 L 0.96875 -1.4375 Z M 0.96875 -1.640625 L 1.4375 -1.640625 C 1.644531 -1.640625 1.796875 -1.675781 1.890625 -1.75 C 1.992188 -1.832031 2.046875 -1.960938 2.046875 -2.140625 C 2.046875 -2.304688 1.992188 -2.429688 1.890625 -2.515625 C 1.796875 -2.597656 1.644531 -2.640625 1.4375 -2.640625 L 0.96875 -2.640625 Z M 0.21875 0 L 0.21875 -0.203125 L 0.578125 -0.203125 L 0.578125 -2.640625 L 0.21875 -2.640625 L 0.21875 -2.84375 L 1.609375 -2.84375 C 1.898438 -2.84375 2.117188 -2.78125 2.265625 -2.65625 C 2.410156 -2.539062 2.484375 -2.367188 2.484375 -2.140625 C 2.484375 -1.960938 2.429688 -1.820312 2.328125 -1.71875 C 2.222656 -1.625 2.078125 -1.566406 1.890625 -1.546875 C 2.128906 -1.515625 2.3125 -1.4375 2.4375 -1.3125 C 2.5625 -1.1875 2.625 -1.023438 2.625 -0.828125 C 2.625 -0.546875 2.535156 -0.335938 2.359375 -0.203125 C 2.179688 -0.0664062 1.90625 0 1.53125 0 Z "/>
</g>
<g id="glyph-0-20">
<path d="M 0.375 -2.640625 C 0.375 -2.703125 0.394531 -2.753906 0.4375 -2.796875 C 0.476562 -2.835938 0.53125 -2.859375 0.59375 -2.859375 C 0.65625 -2.859375 0.707031 -2.835938 0.75 -2.796875 C 0.789062 -2.753906 0.8125 -2.703125 0.8125 -2.640625 C 0.8125 -2.585938 0.789062 -2.539062 0.75 -2.5 C 0.707031 -2.457031 0.65625 -2.4375 0.59375 -2.4375 C 0.53125 -2.4375 0.476562 -2.457031 0.4375 -2.5 C 0.394531 -2.539062 0.375 -2.585938 0.375 -2.640625 Z M 0.828125 -0.203125 L 1.15625 -0.203125 L 1.15625 0 L 0.140625 0 L 0.140625 -0.203125 L 0.46875 -0.203125 L 0.46875 -1.8125 L 0.140625 -1.8125 L 0.140625 -2.015625 L 0.828125 -2.015625 Z "/>
</g>
<g id="glyph-0-21">
<path d="M 1.234375 0.609375 C 0.929688 0.472656 0.703125 0.253906 0.546875 -0.046875 C 0.390625 -0.347656 0.3125 -0.722656 0.3125 -1.171875 C 0.3125 -1.617188 0.390625 -1.992188 0.546875 -2.296875 C 0.703125 -2.597656 0.929688 -2.816406 1.234375 -2.953125 L 1.234375 -2.765625 C 1.046875 -2.628906 0.90625 -2.441406 0.8125 -2.203125 C 0.726562 -1.960938 0.6875 -1.617188 0.6875 -1.171875 C 0.6875 -0.734375 0.726562 -0.390625 0.8125 -0.140625 C 0.90625 0.0976562 1.046875 0.285156 1.234375 0.421875 Z "/>
</g>
<g id="glyph-0-22">
<path d="M 0.171875 -1.1875 L 1.140625 -1.1875 L 1.140625 -0.890625 L 0.171875 -0.890625 Z "/>
</g>
<g id="glyph-0-23">
<path d="M 0.96875 0 L 0.21875 -1.8125 L -0.015625 -1.8125 L -0.015625 -2.015625 L 0.921875 -2.015625 L 0.921875 -1.8125 L 0.59375 -1.8125 L 1.15625 -0.421875 L 1.734375 -1.8125 L 1.421875 -1.8125 L 1.421875 -2.015625 L 2.1875 -2.015625 L 2.1875 -1.8125 L 1.953125 -1.8125 L 1.21875 0 Z "/>
</g>
<g id="glyph-0-24">
<path d="M 0.546875 0 L 0.546875 -0.203125 L 1.046875 -0.203125 L 1.046875 -2.5625 L 0.46875 -2.1875 L 0.46875 -2.4375 L 1.171875 -2.890625 L 1.421875 -2.890625 L 1.421875 -0.203125 L 1.921875 -0.203125 L 1.921875 0 Z "/>
</g>
<g id="glyph-0-25">
<path d="M 1.8125 -1.265625 C 1.726562 -1.171875 1.628906 -1.097656 1.515625 -1.046875 C 1.410156 -1.003906 1.289062 -0.984375 1.15625 -0.984375 C 0.875 -0.984375 0.648438 -1.066406 0.484375 -1.234375 C 0.328125 -1.410156 0.25 -1.644531 0.25 -1.9375 C 0.25 -2.226562 0.335938 -2.457031 0.515625 -2.625 C 0.691406 -2.800781 0.925781 -2.890625 1.21875 -2.890625 C 1.539062 -2.890625 1.785156 -2.769531 1.953125 -2.53125 C 2.128906 -2.289062 2.21875 -1.945312 2.21875 -1.5 C 2.21875 -1.007812 2.113281 -0.625 1.90625 -0.34375 C 1.695312 -0.0703125 1.410156 0.0625 1.046875 0.0625 C 0.941406 0.0625 0.832031 0.0507812 0.71875 0.03125 C 0.613281 0.0078125 0.503906 -0.0195312 0.390625 -0.0625 L 0.390625 -0.53125 L 0.609375 -0.53125 C 0.617188 -0.40625 0.664062 -0.304688 0.75 -0.234375 C 0.832031 -0.171875 0.941406 -0.140625 1.078125 -0.140625 C 1.328125 -0.140625 1.507812 -0.226562 1.625 -0.40625 C 1.75 -0.59375 1.8125 -0.878906 1.8125 -1.265625 Z M 1.203125 -2.703125 C 1.023438 -2.703125 0.882812 -2.632812 0.78125 -2.5 C 0.6875 -2.375 0.640625 -2.1875 0.640625 -1.9375 C 0.640625 -1.6875 0.6875 -1.492188 0.78125 -1.359375 C 0.882812 -1.234375 1.023438 -1.171875 1.203125 -1.171875 C 1.378906 -1.171875 1.515625 -1.234375 1.609375 -1.359375 C 1.710938 -1.492188 1.765625 -1.679688 1.765625 -1.921875 C 1.765625 -2.171875 1.710938 -2.363281 1.609375 -2.5 C 1.515625 -2.632812 1.378906 -2.703125 1.203125 -2.703125 Z "/>
</g>
<g id="glyph-0-26">
<path d="M 0.375 -2.71875 C 0.519531 -2.769531 0.660156 -2.8125 0.796875 -2.84375 C 0.941406 -2.875 1.070312 -2.890625 1.1875 -2.890625 C 1.46875 -2.890625 1.6875 -2.828125 1.84375 -2.703125 C 2 -2.585938 2.078125 -2.421875 2.078125 -2.203125 C 2.078125 -2.035156 2.019531 -1.894531 1.90625 -1.78125 C 1.800781 -1.664062 1.648438 -1.585938 1.453125 -1.546875 C 1.679688 -1.515625 1.859375 -1.429688 1.984375 -1.296875 C 2.117188 -1.160156 2.1875 -0.984375 2.1875 -0.765625 C 2.1875 -0.503906 2.097656 -0.300781 1.921875 -0.15625 C 1.742188 -0.0078125 1.488281 0.0625 1.15625 0.0625 C 1 0.0625 0.847656 0.0390625 0.703125 0 C 0.566406 -0.03125 0.429688 -0.078125 0.296875 -0.140625 L 0.296875 -0.6875 L 0.515625 -0.6875 C 0.523438 -0.507812 0.582031 -0.375 0.6875 -0.28125 C 0.800781 -0.1875 0.957031 -0.140625 1.15625 -0.140625 C 1.351562 -0.140625 1.503906 -0.191406 1.609375 -0.296875 C 1.722656 -0.410156 1.78125 -0.566406 1.78125 -0.765625 C 1.78125 -0.984375 1.722656 -1.148438 1.609375 -1.265625 C 1.492188 -1.378906 1.328125 -1.4375 1.109375 -1.4375 L 0.921875 -1.4375 L 0.921875 -1.640625 L 1.015625 -1.640625 C 1.242188 -1.640625 1.410156 -1.679688 1.515625 -1.765625 C 1.628906 -1.859375 1.6875 -2 1.6875 -2.1875 C 1.6875 -2.351562 1.640625 -2.476562 1.546875 -2.5625 C 1.453125 -2.65625 1.320312 -2.703125 1.15625 -2.703125 C 0.988281 -2.703125 0.851562 -2.660156 0.75 -2.578125 C 0.65625 -2.492188 0.601562 -2.375 0.59375 -2.21875 L 0.375 -2.21875 Z "/>
</g>
<g id="glyph-0-27">
<path d="M 1.234375 -0.140625 C 1.429688 -0.140625 1.578125 -0.242188 1.671875 -0.453125 C 1.765625 -0.660156 1.8125 -0.984375 1.8125 -1.421875 C 1.8125 -1.847656 1.765625 -2.164062 1.671875 -2.375 C 1.578125 -2.59375 1.429688 -2.703125 1.234375 -2.703125 C 1.046875 -2.703125 0.898438 -2.59375 0.796875 -2.375 C 0.703125 -2.164062 0.65625 -1.847656 0.65625 -1.421875 C 0.65625 -0.984375 0.703125 -0.660156 0.796875 -0.453125 C 0.898438 -0.242188 1.046875 -0.140625 1.234375 -0.140625 Z M 1.234375 0.0625 C 0.929688 0.0625 0.691406 -0.0664062 0.515625 -0.328125 C 0.335938 -0.585938 0.25 -0.953125 0.25 -1.421875 C 0.25 -1.878906 0.335938 -2.238281 0.515625 -2.5 C 0.691406 -2.757812 0.929688 -2.890625 1.234375 -2.890625 C 1.546875 -2.890625 1.785156 -2.757812 1.953125 -2.5 C 2.128906 -2.238281 2.21875 -1.878906 2.21875 -1.421875 C 2.21875 -0.953125 2.128906 -0.585938 1.953125 -0.328125 C 1.785156 -0.0664062 1.546875 0.0625 1.234375 0.0625 Z "/>
</g>
<g id="glyph-0-28">
<path d="M 0.28125 0.609375 L 0.28125 0.421875 C 0.46875 0.285156 0.601562 0.0976562 0.6875 -0.140625 C 0.78125 -0.390625 0.828125 -0.734375 0.828125 -1.171875 C 0.828125 -1.617188 0.78125 -1.960938 0.6875 -2.203125 C 0.601562 -2.441406 0.46875 -2.628906 0.28125 -2.765625 L 0.28125 -2.953125 C 0.582031 -2.816406 0.8125 -2.597656 0.96875 -2.296875 C 1.125 -1.992188 1.203125 -1.617188 1.203125 -1.171875 C 1.203125 -0.722656 1.125 -0.347656 0.96875 -0.046875 C 0.8125 0.253906 0.582031 0.472656 0.28125 0.609375 Z "/>
</g>
</g>
</defs>
<g fill="rgb(22.352941%, 82.352941%, 75.294118%)" fill-opacity="1">
<use xlink:href="#glyph-0-0" x="30" y="23.610352"/>
<use xlink:href="#glyph-0-1" x="34" y="23.610352"/>
<use xlink:href="#glyph-0-2" x="36" y="23.610352"/>
<use xlink:href="#glyph-0-3" x="40" y="23.610352"/>
<use xlink:href="#glyph-0-4" x="42" y="23.610352"/>
<use xlink:href="#glyph-0-5" x="44" y="23.610352"/>
<use xlink:href="#glyph-0-6" x="46" y="23.610352"/>
<use xlink:href="#glyph-0-7" x="47" y="23.610352"/>
<use xlink:href="#glyph-0-8" x="48" y="23.610352"/>
<use xlink:href="#glyph-0-9" x="51" y="23.610352"/>
<use xlink:href="#glyph-0-9" x="52" y="23.610352"/>
<use xlink:href="#glyph-0-7" x="53" y="23.610352"/>
<use xlink:href="#glyph-0-10" x="54" y="23.610352"/>
<use xlink:href="#glyph-0-1" x="56" y="23.610352"/>
<use xlink:href="#glyph-0-11" x="58" y="23.610352"/>
<use xlink:href="#glyph-0-10" x="60" y="23.610352"/>
<use xlink:href="#glyph-0-11" x="62" y="23.610352"/>
<use xlink:href="#glyph-0-7" x="64" y="23.610352"/>
<use xlink:href="#glyph-0-12" x="65" y="23.610352"/>
<use xlink:href="#glyph-0-13" x="67" y="23.610352"/>
<use xlink:href="#glyph-0-11" x="69" y="23.610352"/>
<use xlink:href="#glyph-0-11" x="71" y="23.610352"/>
<use xlink:href="#glyph-0-7" x="73" y="23.610352"/>
<use xlink:href="#glyph-0-14" x="74" y="23.610352"/>
<use xlink:href="#glyph-0-15" x="77" y="23.610352"/>
<use xlink:href="#glyph-0-16" x="80" y="23.610352"/>
<use xlink:href="#glyph-0-1" x="82" y="23.610352"/>
<use xlink:href="#glyph-0-4" x="84" y="23.610352"/>
<use xlink:href="#glyph-0-7" x="86" y="23.610352"/>
<use xlink:href="#glyph-0-17" x="87" y="23.610352"/>
<use xlink:href="#glyph-0-18" x="89" y="23.610352"/>
<use xlink:href="#glyph-0-19" x="92" y="23.610352"/>
<use xlink:href="#glyph-0-7" x="95" y="23.610352"/>
<use xlink:href="#glyph-0-14" x="96" y="23.610352"/>
<use xlink:href="#glyph-0-9" x="99" y="23.610352"/>
<use xlink:href="#glyph-0-20" x="100" y="23.610352"/>
<use xlink:href="#glyph-0-2" x="101" y="23.610352"/>
<use xlink:href="#glyph-0-20" x="105" y="23.610352"/>
<use xlink:href="#glyph-0-10" x="106" y="23.610352"/>
<use xlink:href="#glyph-0-7" x="108" y="23.610352"/>
<use xlink:href="#glyph-0-21" x="109" y="23.610352"/>
<use xlink:href="#glyph-0-14" x="111" y="23.610352"/>
<use xlink:href="#glyph-0-9" x="114" y="23.610352"/>
<use xlink:href="#glyph-0-20" x="115" y="23.610352"/>
<use xlink:href="#glyph-0-2" x="116" y="23.610352"/>
<use xlink:href="#glyph-0-20" x="120" y="23.610352"/>
<use xlink:href="#glyph-0-10" x="121" y="23.610352"/>
<use xlink:href="#glyph-0-7" x="123" y="23.610352"/>
<use xlink:href="#glyph-0-22" x="124" y="23.610352"/>
<use xlink:href="#glyph-0-23" x="125" y="23.610352"/>
<use xlink:href="#glyph-0-7" x="127" y="23.610352"/>
<use xlink:href="#glyph-0-17" x="128" y="23.610352"/>
<use xlink:href="#glyph-0-24" x="130" y="23.610352"/>
<use xlink:href="#glyph-0-25" x="132" y="23.610352"/>
<use xlink:href="#glyph-0-17" x="134" y="23.610352"/>
<use xlink:href="#glyph-0-26" x="136" y="23.610352"/>
<use xlink:href="#glyph-0-27" x="138" y="23.610352"/>
<use xlink:href="#glyph-0-17" x="140" y="23.610352"/>
<use xlink:href="#glyph-0-28" x="142" y="23.610352"/>
</g>
</svg>
