<?xml version="1.0" encoding="UTF-8"?>
<svg xmlns="http://www.w3.org/2000/svg" xmlns:xlink="http://www.w3.org/1999/xlink" width="854" height="480" viewBox="0 0 854 480">
<defs>
<g>
<g id="glyph-0-0">
<path d="M 0.625 0 L 0.625 -0.78125 L 1.875 -0.78125 L 1.875 -8.921875 L 0.625 -8.921875 L 0.625 -9.71875 L 9.359375 -9.71875 L 9.359375 -7.421875 L 8.453125 -7.421875 L 8.453125 -8.828125 L 4.375 -8.828125 L 4.375 -5.703125 L 6.921875 -5.703125 L 6.921875 -6.9375 L 7.8125 -6.9375 L 7.8125 -3.578125 L 6.921875 -3.578125 L 6.921875 -4.828125 L 4.375 -4.828125 L 4.375 -0.890625 L 8.578125 -0.890625 L 8.578125 -2.296875 L 9.46875 -2.296875 L 9.46875 0 Z "/>
</g>
<g id="glyph-0-1">
<path d="M 4.671875 -4.40625 L 5.90625 -6.125 L 5.046875 -6.125 L 5.046875 -6.921875 L 7.75 -6.921875 L 7.75 -6.125 L 6.828125 -6.125 L 5.0625 -3.65625 L 7.125 -0.78125 L 8.03125 -0.78125 L 8.03125 0 L 3.640625 0 L 3.640625 -0.78125 L 4.53125 -0.78125 L 3.234375 -2.609375 L 1.921875 -0.78125 L 2.84375 -0.78125 L 2.84375 0 L 0 0 L 0 -0.78125 L 0.984375 -0.78125 L 2.828125 -3.375 L 0.84375 -6.125 L 0.0625 -6.125 L 0.0625 -6.921875 L 4.28125 -6.921875 L 4.28125 -6.125 L 3.453125 -6.125 Z "/>
</g>
<g id="glyph-0-2">
<path d="M 5.34375 -3.90625 C 5.34375 -4.8125 5.253906 -5.445312 5.078125 -5.8125 C 4.910156 -6.1875 4.625 -6.375 4.21875 -6.375 C 3.820312 -6.375 3.539062 -6.191406 3.375 -5.828125 C 3.207031 -5.472656 3.125 -4.867188 3.125 -4.015625 L 3.125 -3.90625 Z M 7.875 -3.125 L 3.125 -3.125 L 3.125 -3.078125 C 3.125 -2.179688 3.253906 -1.535156 3.515625 -1.140625 C 3.785156 -0.742188 4.222656 -0.546875 4.828125 -0.546875 C 5.328125 -0.546875 5.726562 -0.675781 6.03125 -0.9375 C 6.34375 -1.207031 6.539062 -1.59375 6.625 -2.09375 L 7.703125 -2.09375 C 7.515625 -1.3125 7.144531 -0.734375 6.59375 -0.359375 C 6.039062 0.00390625 5.265625 0.1875 4.265625 0.1875 C 3.066406 0.1875 2.144531 -0.125 1.5 -0.75 C 0.863281 -1.382812 0.546875 -2.289062 0.546875 -3.46875 C 0.546875 -4.613281 0.875 -5.503906 1.53125 -6.140625 C 2.1875 -6.785156 3.097656 -7.109375 4.265625 -7.109375 C 5.410156 -7.109375 6.285156 -6.769531 6.890625 -6.09375 C 7.503906 -5.414062 7.832031 -4.425781 7.875 -3.125 Z "/>
</g>
<g id="glyph-0-3">
<path d="M 7.515625 -2.15625 C 7.347656 -1.363281 7.007812 -0.773438 6.5 -0.390625 C 5.988281 -0.00390625 5.296875 0.1875 4.421875 0.1875 C 3.191406 0.1875 2.238281 -0.128906 1.5625 -0.765625 C 0.882812 -1.398438 0.546875 -2.300781 0.546875 -3.46875 C 0.546875 -4.613281 0.878906 -5.503906 1.546875 -6.140625 C 2.210938 -6.785156 3.140625 -7.109375 4.328125 -7.109375 C 4.816406 -7.109375 5.304688 -7.0625 5.796875 -6.96875 C 6.285156 -6.875 6.78125 -6.738281 7.28125 -6.5625 L 7.28125 -4.640625 L 6.5625 -4.640625 C 6.488281 -5.222656 6.316406 -5.65625 6.046875 -5.9375 C 5.773438 -6.226562 5.390625 -6.375 4.890625 -6.375 C 4.253906 -6.375 3.800781 -6.15625 3.53125 -5.71875 C 3.257812 -5.28125 3.125 -4.53125 3.125 -3.46875 C 3.125 -2.414062 3.253906 -1.664062 3.515625 -1.21875 C 3.773438 -0.769531 4.207031 -0.546875 4.8125 -0.546875 C 5.269531 -0.546875 5.640625 -0.679688 5.921875 -0.953125 C 6.203125 -1.234375 6.375 -1.632812 6.4375 -2.15625 Z "/>
</g>
<g id="glyph-0-4">
<path d="M 8.25 -6.921875 L 8.25 -0.78125 L 9.234375 -0.78125 L 9.234375 0 L 5.9375 0 L 5.9375 -0.96875 C 5.664062 -0.5625 5.351562 -0.265625 5 -0.078125 C 4.644531 0.0976562 4.195312 0.1875 3.65625 0.1875 C 2.875 0.1875 2.285156 -0.0390625 1.890625 -0.5 C 1.492188 -0.957031 1.296875 -1.628906 1.296875 -2.515625 L 1.296875 -6.125 L 0.3125 -6.125 L 0.3125 -6.921875 L 3.59375 -6.921875 L 3.59375 -2.875 C 3.59375 -2.019531 3.664062 -1.472656 3.8125 -1.234375 C 3.957031 -1.003906 4.21875 -0.890625 4.59375 -0.890625 C 5.0625 -0.890625 5.398438 -1.0625 5.609375 -1.40625 C 5.828125 -1.75 5.9375 -2.296875 5.9375 -3.046875 L 5.9375 -6.125 L 5.109375 -6.125 L 5.109375 -6.921875 Z "/>
</g>
<g id="glyph-0-5">
<path d="M 1.328125 -6.125 L 0.3125 -6.125 L 0.3125 -6.921875 L 1.328125 -6.921875 L 1.328125 -9.0625 L 3.625 -9.0625 L 3.625 -6.921875 L 5.546875 -6.921875 L 5.546875 -6.125 L 3.625 -6.125 L 3.625 -1.890625 C 3.625 -1.285156 3.671875 -0.910156 3.765625 -0.765625 C 3.859375 -0.617188 4.03125 -0.546875 4.28125 -0.546875 C 4.5625 -0.546875 4.769531 -0.640625 4.90625 -0.828125 C 5.039062 -1.015625 5.113281 -1.300781 5.125 -1.6875 L 6.09375 -1.6875 C 6.050781 -1 5.859375 -0.515625 5.515625 -0.234375 C 5.179688 0.046875 4.597656 0.1875 3.765625 0.1875 C 2.816406 0.1875 2.171875 0.0390625 1.828125 -0.25 C 1.492188 -0.550781 1.328125 -1.097656 1.328125 -1.890625 Z "/>
</g>
<g id="glyph-0-6">
<path d="M 1.21875 -8.875 C 1.21875 -9.226562 1.335938 -9.523438 1.578125 -9.765625 C 1.828125 -10.003906 2.128906 -10.125 2.484375 -10.125 C 2.828125 -10.125 3.117188 -10.003906 3.359375 -9.765625 C 3.597656 -9.523438 3.71875 -9.226562 3.71875 -8.875 C 3.71875 -8.53125 3.597656 -8.238281 3.359375 -8 C 3.117188 -7.757812 2.828125 -7.640625 2.484375 -7.640625 C 2.128906 -7.640625 1.828125 -7.757812 1.578125 -8 C 1.335938 -8.238281 1.21875 -8.53125 1.21875 -8.875 Z M 3.734375 -0.78125 L 4.734375 -0.78125 L 4.734375 0 L 0.453125 0 L 0.453125 -0.78125 L 1.4375 -0.78125 L 1.4375 -6.125 L 0.453125 -6.125 L 0.453125 -6.921875 L 3.734375 -6.921875 Z "/>
</g>
<g id="glyph-0-7">
<path d="M 4.453125 -0.546875 C 4.941406 -0.546875 5.28125 -0.753906 5.46875 -1.171875 C 5.664062 -1.585938 5.765625 -2.351562 5.765625 -3.46875 C 5.765625 -4.570312 5.664062 -5.332031 5.46875 -5.75 C 5.28125 -6.164062 4.941406 -6.375 4.453125 -6.375 C 3.960938 -6.375 3.617188 -6.160156 3.421875 -5.734375 C 3.222656 -5.316406 3.125 -4.5625 3.125 -3.46875 C 3.125 -2.363281 3.222656 -1.597656 3.421875 -1.171875 C 3.617188 -0.753906 3.960938 -0.546875 4.453125 -0.546875 Z M 4.453125 0.1875 C 3.234375 0.1875 2.273438 -0.132812 1.578125 -0.78125 C 0.890625 -1.425781 0.546875 -2.320312 0.546875 -3.46875 C 0.546875 -4.601562 0.890625 -5.492188 1.578125 -6.140625 C 2.273438 -6.785156 3.234375 -7.109375 4.453125 -7.109375 C 5.671875 -7.109375 6.625 -6.785156 7.3125 -6.140625 C 8.007812 -5.492188 8.359375 -4.601562 8.359375 -3.46875 C 8.359375 -2.320312 8.007812 -1.425781 7.3125 -0.78125 C 6.625 -0.132812 5.671875 0.1875 4.453125 0.1875 Z "/>
</g>
<g id="glyph-0-8">
<path d="M 0.453125 0 L 0.453125 -0.78125 L 1.4375 -0.78125 L 1.4375 -6.125 L 0.453125 -6.125 L 0.453125 -6.921875 L 3.734375 -6.921875 L 3.734375 -5.9375 C 4.015625 -6.351562 4.332031 -6.648438 4.6875 -6.828125 C 5.039062 -7.015625 5.492188 -7.109375 6.046875 -7.109375 C 6.816406 -7.109375 7.398438 -6.878906 7.796875 -6.421875 C 8.191406 -5.960938 8.390625 -5.289062 8.390625 -4.40625 L 8.390625 -0.78125 L 9.390625 -0.78125 L 9.390625 0 L 5.25 0 L 5.25 -0.78125 L 6.09375 -0.78125 L 6.09375 -4.46875 C 6.09375 -5.050781 6.015625 -5.457031 5.859375 -5.6875 C 5.710938 -5.914062 5.457031 -6.03125 5.09375 -6.03125 C 4.625 -6.03125 4.28125 -5.859375 4.0625 -5.515625 C 3.84375 -5.171875 3.734375 -4.628906 3.734375 -3.890625 L 3.734375 -0.78125 L 4.59375 -0.78125 L 4.59375 0 Z "/>
</g>
<g id="glyph-0-9">
</g>
<g id="glyph-0-10">
<path d="M 0.625 0 L 0.625 -0.78125 L 1.875 -0.78125 L 1.875 -8.921875 L 0.625 -8.921875 L 0.625 -9.71875 L 6.15625 -9.71875 C 7.238281 -9.71875 8.097656 -9.457031 8.734375 -8.9375 C 9.367188 -8.425781 9.6875 -7.738281 9.6875 -6.875 C 9.6875 -6.007812 9.363281 -5.316406 8.71875 -4.796875 C 8.082031 -4.273438 7.226562 -4.015625 6.15625 -4.015625 L 4.375 -4.015625 L 4.375 -0.78125 L 5.9375 -0.78125 L 5.9375 0 Z M 4.375 -4.8125 L 5.109375 -4.8125 C 5.671875 -4.8125 6.117188 -5 6.453125 -5.375 C 6.785156 -5.75 6.953125 -6.25 6.953125 -6.875 C 6.953125 -7.5 6.785156 -7.992188 6.453125 -8.359375 C 6.117188 -8.734375 5.671875 -8.921875 5.109375 -8.921875 L 4.375 -8.921875 Z "/>
</g>
<g id="glyph-0-11">
<path d="M 3.59375 -3.796875 L 3.59375 -3.125 C 3.59375 -2.3125 3.695312 -1.722656 3.90625 -1.359375 C 4.113281 -1.003906 4.445312 -0.828125 4.90625 -0.828125 C 5.375 -0.828125 5.707031 -1.015625 5.90625 -1.390625 C 6.101562 -1.773438 6.203125 -2.46875 6.203125 -3.46875 C 6.203125 -4.457031 6.101562 -5.140625 5.90625 -5.515625 C 5.707031 -5.898438 5.375 -6.09375 4.90625 -6.09375 C 4.445312 -6.09375 4.113281 -5.910156 3.90625 -5.546875 C 3.695312 -5.191406 3.59375 -4.609375 3.59375 -3.796875 Z M 1.296875 -6.125 L 0.3125 -6.125 L 0.3125 -6.921875 L 3.59375 -6.921875 L 3.59375 -6.046875 C 3.789062 -6.398438 4.050781 -6.664062 4.375 -6.84375 C 4.707031 -7.019531 5.117188 -7.109375 5.609375 -7.109375 C 6.597656 -7.109375 7.375 -6.78125 7.9375 -6.125 C 8.5 -5.476562 8.78125 -4.59375 8.78125 -3.46875 C 8.78125 -2.332031 8.5 -1.4375 7.9375 -0.78125 C 7.375 -0.132812 6.597656 0.1875 5.609375 0.1875 C 5.117188 0.1875 4.707031 0.0976562 4.375 -0.078125 C 4.050781 -0.253906 3.789062 -0.519531 3.59375 -0.875 L 3.59375 1.984375 L 4.671875 1.984375 L 4.671875 2.765625 L 0.3125 2.765625 L 0.3125 1.984375 L 1.296875 1.984375 Z "/>
</g>
<g id="glyph-0-12">
<path d="M 3.734375 -0.78125 L 4.734375 -0.78125 L 4.734375 0 L 0.453125 0 L 0.453125 -0.78125 L 1.4375 -0.78125 L 1.4375 -9.34375 L 0.453125 -9.34375 L 0.453125 -10.125 L 3.734375 -10.125 Z "/>
</g>
</g>
</defs>
<g fill="rgb(90.196078%, 92.941176%, 95.294118%)" fill-opacity="1">
<use xlink:href="#glyph-0-0" x="30" y="32.519531"/>
<use xlink:href="#glyph-0-1" x="40" y="32.519531"/>
<use xlink:href="#glyph-0-2" x="48" y="32.519531"/>
<use xlink:href="#glyph-0-3" x="56" y="32.519531"/>
<use xlink:href="#glyph-0-4" x="64" y="32.519531"/>
<use xlink:href="#glyph-0-5" x="74" y="32.519531"/>
<use xlink:href="#glyph-0-6" x="80" y="32.519531"/>
<use xlink:href="#glyph-0-7" x="85" y="32.519531"/>
<use xlink:href="#glyph-0-8" x="94" y="32.519531"/>
<use xlink:href="#glyph-0-9" x="104" y="32.519531"/>
<use xlink:href="#glyph-0-10" x="109" y="32.519531"/>
<use xlink:href="#glyph-0-6" x="119" y="32.519531"/>
<use xlink:href="#glyph-0-11" x="124" y="32.519531"/>
<use xlink:href="#glyph-0-2" x="133" y="32.519531"/>
<use xlink:href="#glyph-0-12" x="141" y="32.519531"/>
<use xlink:href="#glyph-0-6" x="146" y="32.519531"/>
<use xlink:href="#glyph-0-8" x="151" y="32.519531"/>
<use xlink:href="#glyph-0-2" x="161" y="32.519531"/>
</g>
</svg>
