<?xml version="1.0" encoding="UTF-8"?>
<svg xmlns="http://www.w3.org/2000/svg" xmlns:xlink="http://www.w3.org/1999/xlink" width="3840" height="2160" viewBox="0 0 3840 2160">
<defs>
<g>
<g id="glyph-0-0">
<path d="M 0.5625 -2.46875 L 0.328125 -2.46875 L 0.328125 -3.046875 C 0.484375 -3.117188 0.640625 -3.175781 0.796875 -3.21875 C 0.953125 -3.269531 1.101562 -3.296875 1.25 -3.296875 C 1.582031 -3.296875 1.847656 -3.210938 2.046875 -3.046875 C 2.242188 -2.878906 2.34375 -2.660156 2.34375 -2.390625 C 2.34375 -2.066406 2.117188 -1.6875 1.671875 -1.25 C 1.640625 -1.21875 1.613281 -1.191406 1.59375 -1.171875 L 0.78125 -0.359375 L 2.140625 -0.359375 L 2.140625 -0.75 L 2.390625 -0.75 L 2.390625 0 L 0.296875 0 L 0.296875 -0.234375 L 1.28125 -1.21875 C 1.5 -1.4375 1.65625 -1.632812 1.75 -1.8125 C 1.84375 -1.988281 1.890625 -2.179688 1.890625 -2.390625 C 1.890625 -2.597656 1.832031 -2.765625 1.71875 -2.890625 C 1.601562 -3.015625 1.445312 -3.078125 1.25 -3.078125 C 1.039062 -3.078125 0.878906 -3.023438 0.765625 -2.921875 C 0.648438 -2.816406 0.582031 -2.664062 0.5625 -2.46875 Z "/>
</g>
</g>
</defs>
<g fill="rgb(90.196078%, 92.941176%, 95.294118%)" fill-opacity="1">
<use xlink:href="#glyph-0-0" x="30" y="24.125"/>
</g>
</svg>
