<?xml version="1.0" encoding="UTF-8"?>
<svg xmlns="http://www.w3.org/2000/svg" xmlns:xlink="http://www.w3.org/1999/xlink" width="3840" height="2160" viewBox="0 0 3840 2160">
<defs>
<g>
<g id="glyph-0-0">
<path d="M 0.8125 -3.359375 L 0.453125 -3.359375 L 0.453125 -4.3125 C 0.691406 -4.382812 0.929688 -4.4375 1.171875 -4.46875 C 1.410156 -4.507812 1.648438 -4.53125 1.890625 -4.53125 C 2.453125 -4.53125 2.890625 -4.414062 3.203125 -4.1875 C 3.523438 -3.957031 3.6875 -3.632812 3.6875 -3.21875 C 3.6875 -2.925781 3.597656 -2.660156 3.421875 -2.421875 C 3.253906 -2.191406 2.921875 -1.914062 2.421875 -1.59375 L 1.1875 -0.78125 L 3.296875 -0.78125 L 3.296875 -1.3125 L 3.703125 -1.3125 L 3.703125 0 L 0.40625 0 L 0.40625 -0.734375 L 1.0625 -1.1875 C 1.625 -1.570312 2 -1.898438 2.1875 -2.171875 C 2.375 -2.441406 2.46875 -2.757812 2.46875 -3.125 C 2.46875 -3.46875 2.394531 -3.726562 2.25 -3.90625 C 2.113281 -4.09375 1.910156 -4.1875 1.640625 -4.1875 C 1.398438 -4.1875 1.207031 -4.113281 1.0625 -3.96875 C 0.925781 -3.832031 0.84375 -3.628906 0.8125 -3.359375 Z "/>
</g>
<g id="glyph-0-1">
<path d="M 3.453125 -4.453125 L 3.453125 -3.671875 L 1.0625 -3.671875 L 1.0625 -2.6875 C 1.195312 -2.789062 1.34375 -2.867188 1.5 -2.921875 C 1.65625 -2.972656 1.828125 -3 2.015625 -3 C 2.554688 -3 2.984375 -2.859375 3.296875 -2.578125 C 3.617188 -2.304688 3.78125 -1.929688 3.78125 -1.453125 C 3.78125 -0.960938 3.617188 -0.582031 3.296875 -0.3125 C 2.984375 -0.0390625 2.539062 0.09375 1.96875 0.09375 C 1.726562 0.09375 1.488281 0.0703125 1.25 0.03125 C 1.007812 -0.0078125 0.757812 -0.0703125 0.5 -0.15625 L 0.5 -1.125 L 0.859375 -1.125 C 0.867188 -0.832031 0.941406 -0.613281 1.078125 -0.46875 C 1.222656 -0.332031 1.429688 -0.265625 1.703125 -0.265625 C 1.992188 -0.265625 2.210938 -0.359375 2.359375 -0.546875 C 2.503906 -0.742188 2.578125 -1.046875 2.578125 -1.453125 C 2.578125 -1.847656 2.503906 -2.144531 2.359375 -2.34375 C 2.222656 -2.539062 2.015625 -2.640625 1.734375 -2.640625 C 1.585938 -2.640625 1.453125 -2.609375 1.328125 -2.546875 C 1.210938 -2.484375 1.101562 -2.382812 1 -2.25 L 0.703125 -2.25 L 0.703125 -4.453125 Z "/>
</g>
<g id="glyph-0-2">
<path d="M 1.5625 -4.453125 L 2.234375 -4.453125 L 0.65625 0.5625 L 0 0.5625 Z "/>
</g>
</g>
</defs>
<g fill="rgb(24.705882%, 72.54902%, 31.372549%)" fill-opacity="1">
<use xlink:href="#glyph-0-0" x="30" y="25.737305"/>
<use xlink:href="#glyph-0-1" x="34" y="25.737305"/>
<use xlink:href="#glyph-0-2" x="38" y="25.737305"/>
<use xlink:href="#glyph-0-0" x="40" y="25.737305"/>
<use xlink:href="#glyph-0-1" x="44" y="25.737305"/>
</g>
</svg>
