<?xml version="1.0" encoding="UTF-8"?>
<svg xmlns="http://www.w3.org/2000/svg" xmlns:xlink="http://www.w3.org/1999/xlink" width="854" height="480" viewBox="0 0 854 480">
<defs>
<g>
<g id="glyph-0-0">
<path d="M 3.546875 0 L 1.3125 0 L 1.3125 -0.328125 L 1.921875 -0.328125 L 1.921875 -1.0625 L 0.234375 -1.0625 L 0.234375 -1.375 L 1.921875 -4.125 L 2.953125 -4.125 L 2.953125 -1.421875 L 3.640625 -1.421875 L 3.640625 -1.0625 L 2.953125 -1.0625 L 2.953125 -0.328125 L 3.546875 -0.328125 Z M 1.921875 -1.421875 L 1.921875 -3.390625 L 0.71875 -1.421875 Z "/>
</g>
<g id="glyph-0-1">
<path d="M 3.140625 -4.0625 L 3.140625 -3.34375 L 0.96875 -3.34375 L 0.96875 -2.453125 C 1.082031 -2.546875 1.210938 -2.613281 1.359375 -2.65625 C 1.515625 -2.707031 1.671875 -2.734375 1.828125 -2.734375 C 2.328125 -2.734375 2.722656 -2.601562 3.015625 -2.34375 C 3.304688 -2.09375 3.453125 -1.753906 3.453125 -1.328125 C 3.453125 -0.878906 3.304688 -0.53125 3.015625 -0.28125 C 2.722656 -0.0390625 2.316406 0.078125 1.796875 0.078125 C 1.578125 0.078125 1.359375 0.0546875 1.140625 0.015625 C 0.921875 -0.015625 0.691406 -0.0664062 0.453125 -0.140625 L 0.453125 -1.03125 L 0.78125 -1.03125 C 0.789062 -0.757812 0.859375 -0.554688 0.984375 -0.421875 C 1.117188 -0.296875 1.3125 -0.234375 1.5625 -0.234375 C 1.820312 -0.234375 2.015625 -0.320312 2.140625 -0.5 C 2.273438 -0.6875 2.34375 -0.960938 2.34375 -1.328125 C 2.34375 -1.679688 2.28125 -1.945312 2.15625 -2.125 C 2.03125 -2.300781 1.835938 -2.390625 1.578125 -2.390625 C 1.441406 -2.390625 1.316406 -2.363281 1.203125 -2.3125 C 1.097656 -2.257812 1 -2.171875 0.90625 -2.046875 L 0.640625 -2.046875 L 0.640625 -4.0625 Z "/>
</g>
<g id="glyph-0-2">
<path d="M 1.421875 -4.0625 L 2.03125 -4.0625 L 0.59375 0.515625 L 0 0.515625 Z "/>
</g>
<g id="glyph-0-3">
</g>
<g id="glyph-0-4">
<path d="M 0.265625 0 L 0.265625 -0.328125 L 0.78125 -0.328125 L 0.78125 -3.71875 L 0.265625 -3.71875 L 0.265625 -4.0625 L 2.5625 -4.0625 C 3.019531 -4.0625 3.378906 -3.953125 3.640625 -3.734375 C 3.910156 -3.515625 4.046875 -3.226562 4.046875 -2.875 C 4.046875 -2.507812 3.910156 -2.21875 3.640625 -2 C 3.378906 -1.78125 3.019531 -1.671875 2.5625 -1.671875 L 1.828125 -1.671875 L 1.828125 -0.328125 L 2.484375 -0.328125 L 2.484375 0 Z M 1.828125 -2 L 2.125 -2 C 2.363281 -2 2.550781 -2.078125 2.6875 -2.234375 C 2.832031 -2.398438 2.90625 -2.613281 2.90625 -2.875 C 2.90625 -3.132812 2.832031 -3.335938 2.6875 -3.484375 C 2.550781 -3.640625 2.363281 -3.71875 2.125 -3.71875 L 1.828125 -3.71875 Z "/>
</g>
<g id="glyph-0-5">
<path d="M -0.046875 0 L -0.046875 -0.328125 L 0.28125 -0.328125 L 1.8125 -4.0625 L 2.46875 -4.0625 L 4 -0.328125 L 4.375 -0.328125 L 4.375 0 L 2.484375 0 L 2.484375 -0.328125 L 2.875 -0.328125 L 2.546875 -1.15625 L 1.015625 -1.15625 L 0.671875 -0.328125 L 1.15625 -0.328125 L 1.15625 0 Z M 1.15625 -1.484375 L 2.40625 -1.484375 L 1.78125 -3.03125 Z "/>
</g>
<g id="glyph-0-6">
<path d="M 0.421875 -0.203125 L 0.421875 -1.15625 L 0.78125 -1.15625 C 0.832031 -0.851562 0.953125 -0.625 1.140625 -0.46875 C 1.335938 -0.320312 1.609375 -0.25 1.953125 -0.25 C 2.234375 -0.25 2.445312 -0.300781 2.59375 -0.40625 C 2.738281 -0.519531 2.8125 -0.675781 2.8125 -0.875 C 2.8125 -1.039062 2.757812 -1.164062 2.65625 -1.25 C 2.5625 -1.34375 2.359375 -1.429688 2.046875 -1.515625 L 1.4375 -1.65625 C 1.039062 -1.757812 0.757812 -1.898438 0.59375 -2.078125 C 0.4375 -2.265625 0.359375 -2.523438 0.359375 -2.859375 C 0.359375 -3.253906 0.492188 -3.5625 0.765625 -3.78125 C 1.035156 -4.007812 1.410156 -4.125 1.890625 -4.125 C 2.128906 -4.125 2.375 -4.101562 2.625 -4.0625 C 2.882812 -4.03125 3.148438 -3.972656 3.421875 -3.890625 L 3.421875 -3 L 3.078125 -3 C 3.023438 -3.269531 2.910156 -3.46875 2.734375 -3.59375 C 2.554688 -3.726562 2.304688 -3.796875 1.984375 -3.796875 C 1.710938 -3.796875 1.507812 -3.75 1.375 -3.65625 C 1.238281 -3.5625 1.171875 -3.425781 1.171875 -3.25 C 1.171875 -3.070312 1.21875 -2.941406 1.3125 -2.859375 C 1.40625 -2.773438 1.632812 -2.679688 2 -2.578125 L 2.609375 -2.4375 C 2.984375 -2.34375 3.253906 -2.195312 3.421875 -2 C 3.597656 -1.800781 3.6875 -1.523438 3.6875 -1.171875 C 3.6875 -0.765625 3.539062 -0.453125 3.25 -0.234375 C 2.96875 -0.0234375 2.554688 0.078125 2.015625 0.078125 C 1.742188 0.078125 1.476562 0.0507812 1.21875 0 C 0.957031 -0.0390625 0.691406 -0.109375 0.421875 -0.203125 Z "/>
</g>
<g id="glyph-0-7">
<path d="M 0.265625 0 L 0.265625 -0.328125 L 0.78125 -0.328125 L 0.78125 -3.71875 L 0.265625 -3.71875 L 0.265625 -4.0625 L 3.90625 -4.0625 L 3.90625 -3.09375 L 3.53125 -3.09375 L 3.53125 -3.6875 L 1.828125 -3.6875 L 1.828125 -2.375 L 2.890625 -2.375 L 2.890625 -2.890625 L 3.265625 -2.890625 L 3.265625 -1.5 L 2.890625 -1.5 L 2.890625 -2.015625 L 1.828125 -2.015625 L 1.828125 -0.375 L 3.578125 -0.375 L 3.578125 -0.953125 L 3.953125 -0.953125 L 3.953125 0 Z "/>
</g>
<g id="glyph-0-8">
<path d="M 1.828125 -0.328125 L 2.203125 -0.328125 C 2.628906 -0.328125 2.9375 -0.460938 3.125 -0.734375 C 3.320312 -1.003906 3.421875 -1.4375 3.421875 -2.03125 C 3.421875 -2.625 3.320312 -3.050781 3.125 -3.3125 C 2.9375 -3.582031 2.628906 -3.71875 2.203125 -3.71875 L 1.828125 -3.71875 Z M 0.265625 0 L 0.265625 -0.328125 L 0.78125 -0.328125 L 0.78125 -3.71875 L 0.265625 -3.71875 L 0.265625 -4.0625 L 2.34375 -4.0625 C 3.070312 -4.0625 3.628906 -3.882812 4.015625 -3.53125 C 4.398438 -3.1875 4.59375 -2.6875 4.59375 -2.03125 C 4.59375 -1.375 4.398438 -0.867188 4.015625 -0.515625 C 3.628906 -0.171875 3.070312 0 2.34375 0 Z "/>
</g>
</g>
</defs>
<g fill="rgb(24.705882%, 72.54902%, 31.372549%)" fill-opacity="1">
<use xlink:href="#glyph-0-0" x="30" y="25.216797"/>
<use xlink:href="#glyph-0-1" x="34" y="25.216797"/>
<use xlink:href="#glyph-0-2" x="38" y="25.216797"/>
<use xlink:href="#glyph-0-0" x="40" y="25.216797"/>
<use xlink:href="#glyph-0-1" x="44" y="25.216797"/>
<use xlink:href="#glyph-0-3" x="48" y="25.216797"/>
<use xlink:href="#glyph-0-4" x="50" y="25.216797"/>
<use xlink:href="#glyph-0-5" x="54" y="25.216797"/>
<use xlink:href="#glyph-0-6" x="58" y="25.216797"/>
<use xlink:href="#glyph-0-6" x="62" y="25.216797"/>
<use xlink:href="#glyph-0-7" x="66" y="25.216797"/>
<use xlink:href="#glyph-0-8" x="70" y="25.216797"/>
</g>
</svg>
