<?xml version="1.0" encoding="UTF-8"?>
<svg xmlns="http://www.w3.org/2000/svg" xmlns:xlink="http://www.w3.org/1999/xlink" width="3840" height="2160" viewBox="0 0 3840 2160">
<defs>
<g>
<g id="glyph-0-0">
<path d="M 1.203125 -1.78125 L 1.203125 -1.5625 C 1.160156 -1.582031 1.109375 -1.597656 1.046875 -1.609375 C 0.984375 -1.628906 0.921875 -1.640625 0.859375 -1.640625 C 0.703125 -1.640625 0.582031 -1.582031 0.5 -1.46875 C 0.425781 -1.351562 0.390625 -1.179688 0.390625 -0.953125 C 0.429688 -1.035156 0.484375 -1.097656 0.546875 -1.140625 C 0.617188 -1.179688 0.703125 -1.203125 0.796875 -1.203125 C 0.960938 -1.203125 1.09375 -1.144531 1.1875 -1.03125 C 1.289062 -0.925781 1.34375 -0.773438 1.34375 -0.578125 C 1.34375 -0.390625 1.289062 -0.238281 1.1875 -0.125 C 1.09375 -0.0195312 0.957031 0.03125 0.78125 0.03125 C 0.5625 0.03125 0.398438 -0.0390625 0.296875 -0.1875 C 0.203125 -0.34375 0.15625 -0.582031 0.15625 -0.90625 C 0.15625 -1.21875 0.210938 -1.453125 0.328125 -1.609375 C 0.453125 -1.773438 0.628906 -1.859375 0.859375 -1.859375 C 0.910156 -1.859375 0.96875 -1.847656 1.03125 -1.828125 C 1.09375 -1.816406 1.148438 -1.800781 1.203125 -1.78125 Z M 0.765625 -1.015625 C 0.660156 -1.015625 0.578125 -0.972656 0.515625 -0.890625 C 0.460938 -0.816406 0.4375 -0.710938 0.4375 -0.578125 C 0.4375 -0.453125 0.460938 -0.347656 0.515625 -0.265625 C 0.578125 -0.191406 0.660156 -0.15625 0.765625 -0.15625 C 0.878906 -0.15625 0.960938 -0.191406 1.015625 -0.265625 C 1.066406 -0.335938 1.09375 -0.441406 1.09375 -0.578125 C 1.09375 -0.722656 1.066406 -0.832031 1.015625 -0.90625 C 0.960938 -0.976562 0.878906 -1.015625 0.765625 -1.015625 Z "/>
</g>
<g id="glyph-0-1">
<path d="M 1.125 -0.6875 C 1.125 -0.851562 1.09375 -0.976562 1.03125 -1.0625 C 0.976562 -1.15625 0.898438 -1.203125 0.796875 -1.203125 C 0.679688 -1.203125 0.59375 -1.15625 0.53125 -1.0625 C 0.476562 -0.976562 0.453125 -0.851562 0.453125 -0.6875 C 0.453125 -0.507812 0.476562 -0.375 0.53125 -0.28125 C 0.59375 -0.195312 0.679688 -0.15625 0.796875 -0.15625 C 0.898438 -0.15625 0.976562 -0.195312 1.03125 -0.28125 C 1.09375 -0.375 1.125 -0.507812 1.125 -0.6875 Z M 0.453125 -1.1875 C 0.492188 -1.257812 0.546875 -1.3125 0.609375 -1.34375 C 0.671875 -1.382812 0.742188 -1.40625 0.828125 -1.40625 C 0.992188 -1.40625 1.125 -1.335938 1.21875 -1.203125 C 1.3125 -1.078125 1.359375 -0.90625 1.359375 -0.6875 C 1.359375 -0.457031 1.3125 -0.28125 1.21875 -0.15625 C 1.125 -0.03125 0.992188 0.03125 0.828125 0.03125 C 0.742188 0.03125 0.671875 0.015625 0.609375 -0.015625 C 0.546875 -0.0546875 0.492188 -0.109375 0.453125 -0.171875 L 0.453125 0 L 0.234375 0 L 0.234375 -1.90625 L 0.453125 -1.90625 Z "/>
</g>
<g id="glyph-0-2">
<path d="M 0.75 -0.859375 C 0.644531 -0.859375 0.5625 -0.828125 0.5 -0.765625 C 0.4375 -0.710938 0.40625 -0.628906 0.40625 -0.515625 C 0.40625 -0.398438 0.4375 -0.3125 0.5 -0.25 C 0.5625 -0.1875 0.644531 -0.15625 0.75 -0.15625 C 0.863281 -0.15625 0.945312 -0.1875 1 -0.25 C 1.0625 -0.3125 1.09375 -0.398438 1.09375 -0.515625 C 1.09375 -0.628906 1.0625 -0.710938 1 -0.765625 C 0.945312 -0.828125 0.863281 -0.859375 0.75 -0.859375 Z M 0.53125 -0.96875 C 0.425781 -1 0.34375 -1.050781 0.28125 -1.125 C 0.226562 -1.195312 0.203125 -1.285156 0.203125 -1.390625 C 0.203125 -1.523438 0.25 -1.632812 0.34375 -1.71875 C 0.445312 -1.8125 0.582031 -1.859375 0.75 -1.859375 C 0.914062 -1.859375 1.046875 -1.8125 1.140625 -1.71875 C 1.242188 -1.632812 1.296875 -1.523438 1.296875 -1.390625 C 1.296875 -1.285156 1.265625 -1.195312 1.203125 -1.125 C 1.148438 -1.050781 1.070312 -1 0.96875 -0.96875 C 1.09375 -0.9375 1.1875 -0.878906 1.25 -0.796875 C 1.3125 -0.722656 1.34375 -0.617188 1.34375 -0.484375 C 1.34375 -0.328125 1.289062 -0.203125 1.1875 -0.109375 C 1.082031 -0.015625 0.9375 0.03125 0.75 0.03125 C 0.5625 0.03125 0.414062 -0.0078125 0.3125 -0.09375 C 0.207031 -0.1875 0.15625 -0.316406 0.15625 -0.484375 C 0.15625 -0.617188 0.1875 -0.722656 0.25 -0.796875 C 0.320312 -0.878906 0.414062 -0.9375 0.53125 -0.96875 Z M 0.453125 -1.359375 C 0.453125 -1.265625 0.476562 -1.191406 0.53125 -1.140625 C 0.582031 -1.085938 0.65625 -1.0625 0.75 -1.0625 C 0.851562 -1.0625 0.929688 -1.085938 0.984375 -1.140625 C 1.035156 -1.191406 1.0625 -1.265625 1.0625 -1.359375 C 1.0625 -1.460938 1.035156 -1.539062 0.984375 -1.59375 C 0.929688 -1.644531 0.851562 -1.671875 0.75 -1.671875 C 0.65625 -1.671875 0.582031 -1.640625 0.53125 -1.578125 C 0.476562 -1.523438 0.453125 -1.453125 0.453125 -1.359375 Z "/>
</g>
<g id="glyph-0-3">
<path d="M 1.296875 -0.0625 C 1.234375 -0.03125 1.171875 -0.0078125 1.109375 0 C 1.046875 0.0195312 0.976562 0.03125 0.90625 0.03125 C 0.695312 0.03125 0.53125 -0.03125 0.40625 -0.15625 C 0.289062 -0.28125 0.234375 -0.457031 0.234375 -0.6875 C 0.234375 -0.90625 0.289062 -1.078125 0.40625 -1.203125 C 0.53125 -1.335938 0.695312 -1.40625 0.90625 -1.40625 C 0.976562 -1.40625 1.046875 -1.394531 1.109375 -1.375 C 1.171875 -1.351562 1.234375 -1.328125 1.296875 -1.296875 L 1.296875 -1.0625 C 1.234375 -1.113281 1.171875 -1.148438 1.109375 -1.171875 C 1.054688 -1.191406 0.988281 -1.203125 0.90625 -1.203125 C 0.769531 -1.203125 0.660156 -1.15625 0.578125 -1.0625 C 0.503906 -0.976562 0.46875 -0.851562 0.46875 -0.6875 C 0.46875 -0.519531 0.503906 -0.390625 0.578125 -0.296875 C 0.660156 -0.203125 0.769531 -0.15625 0.90625 -0.15625 C 0.988281 -0.15625 1.0625 -0.164062 1.125 -0.1875 C 1.1875 -0.21875 1.242188 -0.253906 1.296875 -0.296875 Z "/>
</g>
<g id="glyph-0-4">
<path d="M 1.046875 -1.1875 L 1.046875 -1.90625 L 1.265625 -1.90625 L 1.265625 0 L 1.046875 0 L 1.046875 -0.171875 C 1.003906 -0.109375 0.953125 -0.0546875 0.890625 -0.015625 C 0.828125 0.015625 0.757812 0.03125 0.6875 0.03125 C 0.519531 0.03125 0.390625 -0.03125 0.296875 -0.15625 C 0.203125 -0.28125 0.15625 -0.457031 0.15625 -0.6875 C 0.15625 -0.90625 0.203125 -1.078125 0.296875 -1.203125 C 0.390625 -1.335938 0.519531 -1.40625 0.6875 -1.40625 C 0.769531 -1.40625 0.84375 -1.382812 0.90625 -1.34375 C 0.96875 -1.3125 1.015625 -1.257812 1.046875 -1.1875 Z M 0.390625 -0.6875 C 0.390625 -0.507812 0.414062 -0.375 0.46875 -0.28125 C 0.519531 -0.195312 0.601562 -0.15625 0.71875 -0.15625 C 0.820312 -0.15625 0.898438 -0.195312 0.953125 -0.28125 C 1.015625 -0.375 1.046875 -0.507812 1.046875 -0.6875 C 1.046875 -0.851562 1.015625 -0.976562 0.953125 -1.0625 C 0.898438 -1.15625 0.820312 -1.203125 0.71875 -1.203125 C 0.601562 -1.203125 0.519531 -1.15625 0.46875 -1.0625 C 0.414062 -0.976562 0.390625 -0.851562 0.390625 -0.6875 Z "/>
</g>
<g id="glyph-0-5">
<path d="M 0.25 -1.828125 L 1.171875 -1.828125 L 1.171875 -1.609375 L 0.484375 -1.609375 L 0.484375 -1.171875 C 0.515625 -1.179688 0.546875 -1.1875 0.578125 -1.1875 C 0.617188 -1.195312 0.65625 -1.203125 0.6875 -1.203125 C 0.875 -1.203125 1.023438 -1.144531 1.140625 -1.03125 C 1.253906 -0.925781 1.3125 -0.773438 1.3125 -0.578125 C 1.3125 -0.390625 1.25 -0.238281 1.125 -0.125 C 1.007812 -0.0195312 0.851562 0.03125 0.65625 0.03125 C 0.5625 0.03125 0.472656 0.0234375 0.390625 0.015625 C 0.304688 0.00390625 0.234375 -0.015625 0.171875 -0.046875 L 0.171875 -0.296875 C 0.242188 -0.253906 0.316406 -0.222656 0.390625 -0.203125 C 0.472656 -0.179688 0.550781 -0.171875 0.625 -0.171875 C 0.769531 -0.171875 0.878906 -0.207031 0.953125 -0.28125 C 1.023438 -0.351562 1.0625 -0.453125 1.0625 -0.578125 C 1.0625 -0.710938 1.019531 -0.816406 0.9375 -0.890625 C 0.863281 -0.960938 0.757812 -1 0.625 -1 C 0.5625 -1 0.5 -0.988281 0.4375 -0.96875 C 0.375 -0.957031 0.3125 -0.9375 0.25 -0.90625 Z "/>
</g>
<g id="glyph-0-6">
<path d="M 0.734375 -0.8125 C 0.835938 -0.8125 0.914062 -0.847656 0.96875 -0.921875 C 1.03125 -0.992188 1.0625 -1.097656 1.0625 -1.234375 C 1.0625 -1.367188 1.03125 -1.472656 0.96875 -1.546875 C 0.914062 -1.617188 0.835938 -1.65625 0.734375 -1.65625 C 0.617188 -1.65625 0.53125 -1.617188 0.46875 -1.546875 C 0.414062 -1.484375 0.390625 -1.378906 0.390625 -1.234375 C 0.390625 -1.085938 0.414062 -0.976562 0.46875 -0.90625 C 0.53125 -0.84375 0.617188 -0.8125 0.734375 -0.8125 Z M 0.28125 -0.03125 L 0.28125 -0.265625 C 0.332031 -0.234375 0.382812 -0.207031 0.4375 -0.1875 C 0.5 -0.175781 0.5625 -0.171875 0.625 -0.171875 C 0.78125 -0.171875 0.898438 -0.226562 0.984375 -0.34375 C 1.066406 -0.46875 1.109375 -0.644531 1.109375 -0.875 C 1.066406 -0.789062 1.007812 -0.722656 0.9375 -0.671875 C 0.875 -0.628906 0.796875 -0.609375 0.703125 -0.609375 C 0.523438 -0.609375 0.390625 -0.660156 0.296875 -0.765625 C 0.203125 -0.878906 0.15625 -1.035156 0.15625 -1.234375 C 0.15625 -1.429688 0.203125 -1.582031 0.296875 -1.6875 C 0.398438 -1.800781 0.539062 -1.859375 0.71875 -1.859375 C 0.9375 -1.859375 1.09375 -1.78125 1.1875 -1.625 C 1.28125 -1.476562 1.328125 -1.238281 1.328125 -0.90625 C 1.328125 -0.601562 1.269531 -0.367188 1.15625 -0.203125 C 1.039062 -0.046875 0.867188 0.03125 0.640625 0.03125 C 0.578125 0.03125 0.515625 0.0234375 0.453125 0.015625 C 0.398438 0.00390625 0.34375 -0.0078125 0.28125 -0.03125 Z "/>
</g>
<g id="glyph-0-7">
<path d="M 1.359375 -0.734375 L 1.359375 -0.625 L 0.390625 -0.625 C 0.390625 -0.476562 0.425781 -0.363281 0.5 -0.28125 C 0.582031 -0.195312 0.691406 -0.15625 0.828125 -0.15625 C 0.898438 -0.15625 0.972656 -0.164062 1.046875 -0.1875 C 1.128906 -0.207031 1.21875 -0.242188 1.3125 -0.296875 L 1.3125 -0.0625 C 1.21875 -0.03125 1.128906 -0.0078125 1.046875 0 C 0.972656 0.0195312 0.898438 0.03125 0.828125 0.03125 C 0.617188 0.03125 0.453125 -0.03125 0.328125 -0.15625 C 0.210938 -0.28125 0.15625 -0.457031 0.15625 -0.6875 C 0.15625 -0.90625 0.210938 -1.078125 0.328125 -1.203125 C 0.441406 -1.335938 0.597656 -1.40625 0.796875 -1.40625 C 0.972656 -1.40625 1.109375 -1.34375 1.203125 -1.21875 C 1.304688 -1.101562 1.359375 -0.941406 1.359375 -0.734375 Z M 1.140625 -0.8125 C 1.128906 -0.9375 1.09375 -1.03125 1.03125 -1.09375 C 0.976562 -1.164062 0.894531 -1.203125 0.78125 -1.203125 C 0.675781 -1.203125 0.585938 -1.164062 0.515625 -1.09375 C 0.441406 -1.03125 0.398438 -0.929688 0.390625 -0.796875 Z "/>
</g>
<g id="glyph-0-8">
<path d="M 0.59375 -0.921875 C 0.59375 -0.960938 0.609375 -1 0.640625 -1.03125 C 0.671875 -1.0625 0.707031 -1.078125 0.75 -1.078125 C 0.789062 -1.078125 0.828125 -1.0625 0.859375 -1.03125 C 0.898438 -1 0.921875 -0.960938 0.921875 -0.921875 C 0.921875 -0.867188 0.898438 -0.828125 0.859375 -0.796875 C 0.828125 -0.765625 0.789062 -0.75 0.75 -0.75 C 0.707031 -0.75 0.671875 -0.765625 0.640625 -0.796875 C 0.609375 -0.828125 0.59375 -0.867188 0.59375 -0.921875 Z M 0.75 -1.65625 C 0.632812 -1.65625 0.546875 -1.59375 0.484375 -1.46875 C 0.429688 -1.351562 0.40625 -1.164062 0.40625 -0.90625 C 0.40625 -0.65625 0.429688 -0.46875 0.484375 -0.34375 C 0.546875 -0.21875 0.632812 -0.15625 0.75 -0.15625 C 0.863281 -0.15625 0.945312 -0.21875 1 -0.34375 C 1.0625 -0.46875 1.09375 -0.65625 1.09375 -0.90625 C 1.09375 -1.164062 1.0625 -1.351562 1 -1.46875 C 0.945312 -1.59375 0.863281 -1.65625 0.75 -1.65625 Z M 0.75 -1.859375 C 0.945312 -1.859375 1.09375 -1.773438 1.1875 -1.609375 C 1.289062 -1.453125 1.34375 -1.21875 1.34375 -0.90625 C 1.34375 -0.59375 1.289062 -0.359375 1.1875 -0.203125 C 1.09375 -0.046875 0.945312 0.03125 0.75 0.03125 C 0.550781 0.03125 0.398438 -0.046875 0.296875 -0.203125 C 0.203125 -0.359375 0.15625 -0.59375 0.15625 -0.90625 C 0.15625 -1.21875 0.203125 -1.453125 0.296875 -1.609375 C 0.398438 -1.773438 0.550781 -1.859375 0.75 -1.859375 Z "/>
</g>
<g id="glyph-0-9">
<path d="M 0.453125 -0.203125 L 1.296875 -0.203125 L 1.296875 0 L 0.1875 0 L 0.1875 -0.203125 C 0.332031 -0.367188 0.460938 -0.507812 0.578125 -0.625 C 0.691406 -0.75 0.773438 -0.835938 0.828125 -0.890625 C 0.898438 -0.992188 0.953125 -1.070312 0.984375 -1.125 C 1.015625 -1.1875 1.03125 -1.253906 1.03125 -1.328125 C 1.03125 -1.421875 1 -1.492188 0.9375 -1.546875 C 0.875 -1.609375 0.789062 -1.640625 0.6875 -1.640625 C 0.613281 -1.640625 0.535156 -1.625 0.453125 -1.59375 C 0.378906 -1.570312 0.296875 -1.535156 0.203125 -1.484375 L 0.203125 -1.734375 C 0.285156 -1.773438 0.363281 -1.804688 0.4375 -1.828125 C 0.519531 -1.847656 0.601562 -1.859375 0.6875 -1.859375 C 0.863281 -1.859375 1.003906 -1.8125 1.109375 -1.71875 C 1.222656 -1.625 1.28125 -1.5 1.28125 -1.34375 C 1.28125 -1.257812 1.257812 -1.175781 1.21875 -1.09375 C 1.1875 -1.019531 1.128906 -0.9375 1.046875 -0.84375 C 1.003906 -0.789062 0.9375 -0.71875 0.84375 -0.625 C 0.757812 -0.53125 0.628906 -0.390625 0.453125 -0.203125 Z "/>
</g>
<g id="glyph-0-10">
<path d="M 0.328125 -0.203125 L 0.71875 -0.203125 L 0.71875 -1.59375 L 0.296875 -1.5 L 0.296875 -1.734375 L 0.703125 -1.828125 L 0.953125 -1.828125 L 0.953125 -0.203125 L 1.328125 -0.203125 L 1.328125 0 L 0.328125 0 Z "/>
</g>
<g id="glyph-0-11">
<path d="M 0.59375 -0.375 L 0.90625 -0.375 L 0.90625 0 L 0.59375 0 Z "/>
</g>
</g>
</defs>
<g fill="rgb(28.235294%, 30.980392%, 34.509804%)" fill-opacity="1">
<use xlink:href="#glyph-0-0" x="30" y="22.320312"/>
<use xlink:href="#glyph-0-1" x="32" y="22.320312"/>
<use xlink:href="#glyph-0-2" x="34" y="22.320312"/>
<use xlink:href="#glyph-0-3" x="36" y="22.320312"/>
<use xlink:href="#glyph-0-4" x="38" y="22.320312"/>
<use xlink:href="#glyph-0-3" x="40" y="22.320312"/>
<use xlink:href="#glyph-0-5" x="42" y="22.320312"/>
<use xlink:href="#glyph-0-5" x="44" y="22.320312"/>
<use xlink:href="#glyph-0-6" x="46" y="22.320312"/>
<use xlink:href="#glyph-0-7" x="48" y="22.320312"/>
<use xlink:href="#glyph-0-3" x="50" y="22.320312"/>
<use xlink:href="#glyph-0-8" x="52" y="22.320312"/>
<use xlink:href="#glyph-0-5" x="54" y="22.320312"/>
<use xlink:href="#glyph-0-9" x="56" y="22.320312"/>
<use xlink:href="#glyph-0-0" x="58" y="22.320312"/>
<use xlink:href="#glyph-0-10" x="60" y="22.320312"/>
<use xlink:href="#glyph-0-11" x="62" y="22.320312"/>
<use xlink:href="#glyph-0-11" x="64" y="22.320312"/>
<use xlink:href="#glyph-0-11" x="66" y="22.320312"/>
</g>
</svg>
