<?xml version="1.0" encoding="UTF-8"?>
<svg xmlns="http://www.w3.org/2000/svg" xmlns:xlink="http://www.w3.org/1999/xlink" width="3840" height="2160" viewBox="0 0 3840 2160">
<defs>
<g>
<g id="glyph-0-0">
<path d="M 0.3125 0 L 0.3125 -0.28125 L 0.828125 -0.28125 L 0.828125 -3.765625 L 0.28125 -3.765625 L 0.28125 -4.0625 L 1.453125 -4.0625 L 2.875 -1.171875 L 4.3125 -4.0625 L 5.40625 -4.0625 L 5.40625 -3.765625 L 4.875 -3.765625 L 4.875 -0.28125 L 5.390625 -0.28125 L 5.390625 0 L 3.8125 0 L 3.8125 -0.28125 L 4.328125 -0.28125 L 4.328125 -3.421875 L 2.9375 -0.59375 L 2.546875 -0.59375 L 1.15625 -3.421875 L 1.15625 -0.28125 L 1.671875 -0.28125 L 1.671875 0 Z "/>
</g>
<g id="glyph-0-1">
<path d="M 1.375 -2.0625 L 2.09375 -2.0625 C 2.363281 -2.0625 2.566406 -2.132812 2.703125 -2.28125 C 2.847656 -2.425781 2.921875 -2.640625 2.921875 -2.921875 C 2.921875 -3.191406 2.847656 -3.398438 2.703125 -3.546875 C 2.566406 -3.691406 2.363281 -3.765625 2.09375 -3.765625 L 1.375 -3.765625 Z M 0.3125 0 L 0.3125 -0.28125 L 0.828125 -0.28125 L 0.828125 -3.765625 L 0.3125 -3.765625 L 0.3125 -4.0625 L 2.21875 -4.0625 C 2.625 -4.0625 2.945312 -3.957031 3.1875 -3.75 C 3.425781 -3.539062 3.546875 -3.265625 3.546875 -2.921875 C 3.546875 -2.566406 3.425781 -2.285156 3.1875 -2.078125 C 2.945312 -1.878906 2.625 -1.78125 2.21875 -1.78125 L 1.375 -1.78125 L 1.375 -0.28125 L 2 -0.28125 L 2 0 Z "/>
</g>
<g id="glyph-0-2">
<path d="M 2.28125 -0.21875 C 2.726562 -0.21875 3.0625 -0.367188 3.28125 -0.671875 C 3.507812 -0.972656 3.625 -1.425781 3.625 -2.03125 C 3.625 -2.625 3.507812 -3.070312 3.28125 -3.375 C 3.0625 -3.6875 2.726562 -3.84375 2.28125 -3.84375 C 1.832031 -3.84375 1.492188 -3.6875 1.265625 -3.375 C 1.046875 -3.070312 0.9375 -2.625 0.9375 -2.03125 C 0.9375 -1.425781 1.046875 -0.972656 1.265625 -0.671875 C 1.492188 -0.367188 1.832031 -0.21875 2.28125 -0.21875 Z M 2.28125 0.078125 C 2.007812 0.078125 1.753906 0.0351562 1.515625 -0.046875 C 1.285156 -0.140625 1.082031 -0.273438 0.90625 -0.453125 C 0.707031 -0.660156 0.554688 -0.890625 0.453125 -1.140625 C 0.359375 -1.398438 0.3125 -1.695312 0.3125 -2.03125 C 0.3125 -2.351562 0.359375 -2.644531 0.453125 -2.90625 C 0.554688 -3.164062 0.707031 -3.394531 0.90625 -3.59375 C 1.082031 -3.769531 1.285156 -3.898438 1.515625 -3.984375 C 1.742188 -4.078125 2 -4.125 2.28125 -4.125 C 2.875 -4.125 3.347656 -3.929688 3.703125 -3.546875 C 4.066406 -3.160156 4.25 -2.65625 4.25 -2.03125 C 4.25 -1.695312 4.195312 -1.398438 4.09375 -1.140625 C 4 -0.878906 3.847656 -0.648438 3.640625 -0.453125 C 3.460938 -0.273438 3.257812 -0.140625 3.03125 -0.046875 C 2.8125 0.0351562 2.5625 0.078125 2.28125 0.078125 Z "/>
</g>
<g id="glyph-0-3">
</g>
<g id="glyph-0-4">
<path d="M 3.890625 -3 L 2.640625 -1.734375 L 3.890625 -0.484375 L 3.578125 -0.1875 L 2.328125 -1.4375 L 1.078125 -0.1875 L 0.765625 -0.484375 L 2.015625 -1.734375 L 0.765625 -3 L 1.078125 -3.3125 L 2.328125 -2.046875 L 3.578125 -3.3125 Z "/>
</g>
<g id="glyph-0-5">
<path d="M 0.515625 -0.203125 L 0.515625 -1.125 L 0.828125 -1.109375 C 0.835938 -0.804688 0.925781 -0.582031 1.09375 -0.4375 C 1.257812 -0.289062 1.519531 -0.21875 1.875 -0.21875 C 2.195312 -0.21875 2.441406 -0.28125 2.609375 -0.40625 C 2.773438 -0.53125 2.859375 -0.71875 2.859375 -0.96875 C 2.859375 -1.15625 2.804688 -1.300781 2.703125 -1.40625 C 2.597656 -1.507812 2.382812 -1.613281 2.0625 -1.71875 L 1.53125 -1.875 C 1.132812 -2 0.859375 -2.144531 0.703125 -2.3125 C 0.546875 -2.488281 0.46875 -2.734375 0.46875 -3.046875 C 0.46875 -3.390625 0.585938 -3.65625 0.828125 -3.84375 C 1.078125 -4.03125 1.421875 -4.125 1.859375 -4.125 C 2.046875 -4.125 2.25 -4.101562 2.46875 -4.0625 C 2.695312 -4.019531 2.941406 -3.960938 3.203125 -3.890625 L 3.203125 -3.03125 L 2.890625 -3.03125 C 2.859375 -3.3125 2.757812 -3.515625 2.59375 -3.640625 C 2.4375 -3.773438 2.195312 -3.84375 1.875 -3.84375 C 1.582031 -3.84375 1.363281 -3.78125 1.21875 -3.65625 C 1.070312 -3.539062 1 -3.375 1 -3.15625 C 1 -2.957031 1.050781 -2.800781 1.15625 -2.6875 C 1.269531 -2.582031 1.507812 -2.476562 1.875 -2.375 L 2.375 -2.21875 C 2.75 -2.101562 3.015625 -1.960938 3.171875 -1.796875 C 3.328125 -1.628906 3.40625 -1.398438 3.40625 -1.109375 C 3.40625 -0.710938 3.273438 -0.414062 3.015625 -0.21875 C 2.765625 -0.0195312 2.394531 0.078125 1.90625 0.078125 C 1.675781 0.078125 1.445312 0.0507812 1.21875 0 C 0.988281 -0.0390625 0.753906 -0.109375 0.515625 -0.203125 Z "/>
</g>
<g id="glyph-0-6">
<path d="M 0.3125 -2.015625 L 3.8125 -2.015625 L 3.296875 -2.9375 L 3.328125 -2.9375 L 4.453125 -1.8125 L 4.453125 -1.78125 L 3.328125 -0.65625 L 3.296875 -0.65625 L 3.8125 -1.578125 L 0.3125 -1.578125 Z "/>
</g>
<g id="glyph-0-7">
<path d="M 3.921875 -1.078125 C 3.804688 -0.691406 3.601562 -0.398438 3.3125 -0.203125 C 3.03125 -0.015625 2.675781 0.078125 2.25 0.078125 C 1.988281 0.078125 1.742188 0.0351562 1.515625 -0.046875 C 1.285156 -0.140625 1.082031 -0.273438 0.90625 -0.453125 C 0.707031 -0.660156 0.554688 -0.890625 0.453125 -1.140625 C 0.359375 -1.398438 0.3125 -1.695312 0.3125 -2.03125 C 0.3125 -2.65625 0.492188 -3.160156 0.859375 -3.546875 C 1.222656 -3.929688 1.703125 -4.125 2.296875 -4.125 C 2.515625 -4.125 2.75 -4.09375 3 -4.03125 C 3.25 -3.976562 3.519531 -3.894531 3.8125 -3.78125 L 3.8125 -2.84375 L 3.5 -2.84375 C 3.4375 -3.1875 3.300781 -3.4375 3.09375 -3.59375 C 2.894531 -3.757812 2.613281 -3.84375 2.25 -3.84375 C 1.820312 -3.84375 1.492188 -3.6875 1.265625 -3.375 C 1.046875 -3.070312 0.9375 -2.625 0.9375 -2.03125 C 0.9375 -1.425781 1.046875 -0.972656 1.265625 -0.671875 C 1.492188 -0.367188 1.820312 -0.21875 2.25 -0.21875 C 2.550781 -0.21875 2.800781 -0.285156 3 -0.421875 C 3.195312 -0.566406 3.335938 -0.785156 3.421875 -1.078125 Z "/>
</g>
<g id="glyph-0-8">
<path d="M 1.671875 -0.1875 C 1.941406 -0.1875 2.144531 -0.289062 2.28125 -0.5 C 2.414062 -0.71875 2.484375 -1.03125 2.484375 -1.4375 C 2.484375 -1.851562 2.414062 -2.164062 2.28125 -2.375 C 2.144531 -2.59375 1.941406 -2.703125 1.671875 -2.703125 C 1.398438 -2.703125 1.195312 -2.59375 1.0625 -2.375 C 0.925781 -2.164062 0.859375 -1.851562 0.859375 -1.4375 C 0.859375 -1.03125 0.925781 -0.71875 1.0625 -0.5 C 1.207031 -0.289062 1.410156 -0.1875 1.671875 -0.1875 Z M 1.671875 0.078125 C 1.253906 0.078125 0.914062 -0.0546875 0.65625 -0.328125 C 0.40625 -0.609375 0.28125 -0.976562 0.28125 -1.4375 C 0.28125 -1.90625 0.40625 -2.273438 0.65625 -2.546875 C 0.914062 -2.828125 1.253906 -2.96875 1.671875 -2.96875 C 2.097656 -2.96875 2.4375 -2.828125 2.6875 -2.546875 C 2.9375 -2.273438 3.0625 -1.90625 3.0625 -1.4375 C 3.0625 -0.976562 2.9375 -0.609375 2.6875 -0.328125 C 2.4375 -0.0546875 2.097656 0.078125 1.671875 0.078125 Z "/>
</g>
<g id="glyph-0-9">
<path d="M 0.234375 0 L 0.234375 -0.28125 L 0.671875 -0.28125 L 0.671875 -2.59375 L 0.203125 -2.59375 L 0.203125 -2.890625 L 1.171875 -2.890625 L 1.171875 -2.375 C 1.265625 -2.570312 1.382812 -2.71875 1.53125 -2.8125 C 1.6875 -2.914062 1.859375 -2.96875 2.046875 -2.96875 C 2.367188 -2.96875 2.601562 -2.875 2.75 -2.6875 C 2.90625 -2.507812 2.984375 -2.226562 2.984375 -1.84375 L 2.984375 -0.28125 L 3.421875 -0.28125 L 3.421875 0 L 2.046875 0 L 2.046875 -0.28125 L 2.484375 -0.28125 L 2.484375 -1.671875 C 2.484375 -2.023438 2.4375 -2.269531 2.34375 -2.40625 C 2.257812 -2.539062 2.109375 -2.609375 1.890625 -2.609375 C 1.660156 -2.609375 1.484375 -2.519531 1.359375 -2.34375 C 1.234375 -2.175781 1.171875 -1.929688 1.171875 -1.609375 L 1.171875 -0.28125 L 1.609375 -0.28125 L 1.609375 0 Z "/>
</g>
<g id="glyph-0-10">
<path d="M 0.59375 -2.59375 L 0.15625 -2.59375 L 0.15625 -2.890625 L 0.59375 -2.890625 L 0.59375 -3.78125 L 1.109375 -3.78125 L 1.109375 -2.890625 L 2.046875 -2.890625 L 2.046875 -2.59375 L 1.109375 -2.59375 L 1.109375 -0.765625 C 1.109375 -0.515625 1.128906 -0.351562 1.171875 -0.28125 C 1.222656 -0.21875 1.3125 -0.1875 1.4375 -0.1875 C 1.5625 -0.1875 1.65625 -0.222656 1.71875 -0.296875 C 1.78125 -0.378906 1.8125 -0.503906 1.8125 -0.671875 L 2.1875 -0.671875 C 2.175781 -0.410156 2.101562 -0.21875 1.96875 -0.09375 C 1.84375 0.0195312 1.648438 0.078125 1.390625 0.078125 C 1.097656 0.078125 0.890625 0.015625 0.765625 -0.109375 C 0.648438 -0.234375 0.59375 -0.453125 0.59375 -0.765625 Z "/>
</g>
<g id="glyph-0-11">
<path d="M 2.65625 -2.890625 L 2.65625 -2.171875 L 2.375 -2.171875 C 2.363281 -2.316406 2.320312 -2.421875 2.25 -2.484375 C 2.175781 -2.554688 2.070312 -2.59375 1.9375 -2.59375 C 1.695312 -2.59375 1.507812 -2.507812 1.375 -2.34375 C 1.238281 -2.175781 1.171875 -1.929688 1.171875 -1.609375 L 1.171875 -0.28125 L 1.75 -0.28125 L 1.75 0 L 0.234375 0 L 0.234375 -0.28125 L 0.671875 -0.28125 L 0.671875 -2.609375 L 0.203125 -2.609375 L 0.203125 -2.890625 L 1.171875 -2.890625 L 1.171875 -2.375 C 1.273438 -2.570312 1.398438 -2.71875 1.546875 -2.8125 C 1.703125 -2.914062 1.894531 -2.96875 2.125 -2.96875 C 2.195312 -2.96875 2.28125 -2.957031 2.375 -2.9375 C 2.46875 -2.925781 2.5625 -2.910156 2.65625 -2.890625 Z "/>
</g>
<g id="glyph-0-12">
<path d="M 2.21875 -0.90625 L 2.21875 -1.515625 L 1.5625 -1.515625 C 1.320312 -1.515625 1.140625 -1.460938 1.015625 -1.359375 C 0.890625 -1.253906 0.828125 -1.085938 0.828125 -0.859375 C 0.828125 -0.660156 0.890625 -0.503906 1.015625 -0.390625 C 1.140625 -0.273438 1.304688 -0.21875 1.515625 -0.21875 C 1.722656 -0.21875 1.890625 -0.28125 2.015625 -0.40625 C 2.148438 -0.53125 2.21875 -0.695312 2.21875 -0.90625 Z M 2.71875 -1.796875 L 2.71875 -0.28125 L 3.15625 -0.28125 L 3.15625 0 L 2.21875 0 L 2.21875 -0.3125 C 2.101562 -0.175781 1.972656 -0.078125 1.828125 -0.015625 C 1.679688 0.046875 1.515625 0.078125 1.328125 0.078125 C 1.003906 0.078125 0.75 -0.00390625 0.5625 -0.171875 C 0.375 -0.347656 0.28125 -0.578125 0.28125 -0.859375 C 0.28125 -1.160156 0.382812 -1.394531 0.59375 -1.5625 C 0.8125 -1.726562 1.117188 -1.8125 1.515625 -1.8125 L 2.21875 -1.8125 L 2.21875 -2 C 2.21875 -2.21875 2.148438 -2.390625 2.015625 -2.515625 C 1.878906 -2.640625 1.691406 -2.703125 1.453125 -2.703125 C 1.253906 -2.703125 1.09375 -2.65625 0.96875 -2.5625 C 0.851562 -2.46875 0.78125 -2.332031 0.75 -2.15625 L 0.5 -2.15625 L 0.5 -2.75 C 0.675781 -2.820312 0.84375 -2.875 1 -2.90625 C 1.164062 -2.945312 1.328125 -2.96875 1.484375 -2.96875 C 1.890625 -2.96875 2.195312 -2.867188 2.40625 -2.671875 C 2.613281 -2.472656 2.71875 -2.179688 2.71875 -1.796875 Z "/>
</g>
<g id="glyph-0-13">
<path d="M 2.859375 -0.859375 C 2.785156 -0.554688 2.648438 -0.320312 2.453125 -0.15625 C 2.253906 0 1.992188 0.078125 1.671875 0.078125 C 1.253906 0.078125 0.914062 -0.0546875 0.65625 -0.328125 C 0.40625 -0.609375 0.28125 -0.976562 0.28125 -1.4375 C 0.28125 -1.90625 0.40625 -2.273438 0.65625 -2.546875 C 0.914062 -2.828125 1.253906 -2.96875 1.671875 -2.96875 C 1.859375 -2.96875 2.039062 -2.945312 2.21875 -2.90625 C 2.394531 -2.863281 2.578125 -2.796875 2.765625 -2.703125 L 2.765625 -1.96875 L 2.46875 -1.96875 C 2.4375 -2.21875 2.351562 -2.398438 2.21875 -2.515625 C 2.09375 -2.640625 1.910156 -2.703125 1.671875 -2.703125 C 1.410156 -2.703125 1.207031 -2.59375 1.0625 -2.375 C 0.925781 -2.164062 0.859375 -1.851562 0.859375 -1.4375 C 0.859375 -1.019531 0.925781 -0.707031 1.0625 -0.5 C 1.195312 -0.289062 1.398438 -0.1875 1.671875 -0.1875 C 1.890625 -0.1875 2.0625 -0.242188 2.1875 -0.359375 C 2.320312 -0.472656 2.410156 -0.640625 2.453125 -0.859375 Z "/>
</g>
<g id="glyph-0-14">
<path d="M 0.546875 -3.78125 C 0.546875 -3.863281 0.570312 -3.9375 0.625 -4 C 0.6875 -4.0625 0.757812 -4.09375 0.84375 -4.09375 C 0.925781 -4.09375 1 -4.0625 1.0625 -4 C 1.125 -3.9375 1.15625 -3.863281 1.15625 -3.78125 C 1.15625 -3.695312 1.125 -3.625 1.0625 -3.5625 C 1.007812 -3.507812 0.9375 -3.484375 0.84375 -3.484375 C 0.757812 -3.484375 0.6875 -3.507812 0.625 -3.5625 C 0.570312 -3.625 0.546875 -3.695312 0.546875 -3.78125 Z M 1.171875 -0.28125 L 1.65625 -0.28125 L 1.65625 0 L 0.203125 0 L 0.203125 -0.28125 L 0.671875 -0.28125 L 0.671875 -2.59375 L 0.203125 -2.59375 L 0.203125 -2.890625 L 1.171875 -2.890625 Z "/>
</g>
<g id="glyph-0-15">
<path d="M 2.546875 -3.484375 L 2.546875 -1.96875 L 4.078125 -1.96875 L 4.078125 -1.53125 L 2.546875 -1.53125 L 2.546875 0 L 2.109375 0 L 2.109375 -1.53125 L 0.59375 -1.53125 L 0.59375 -1.96875 L 2.109375 -1.96875 L 2.109375 -3.484375 Z "/>
</g>
<g id="glyph-0-16">
<path d="M 0.96875 -3.765625 L 2.171875 -0.65625 L 3.359375 -3.765625 L 2.90625 -3.765625 L 2.90625 -4.0625 L 4.09375 -4.0625 L 4.09375 -3.765625 L 3.703125 -3.765625 L 2.25 0 L 1.796875 0 L 0.34375 -3.765625 L -0.046875 -3.765625 L -0.046875 -4.0625 L 1.421875 -4.0625 L 1.421875 -3.765625 Z "/>
</g>
<g id="glyph-0-17">
<path d="M 1.375 -0.28125 L 1.875 -0.28125 C 2.40625 -0.28125 2.8125 -0.429688 3.09375 -0.734375 C 3.375 -1.035156 3.515625 -1.46875 3.515625 -2.03125 C 3.515625 -2.59375 3.375 -3.019531 3.09375 -3.3125 C 2.8125 -3.613281 2.40625 -3.765625 1.875 -3.765625 L 1.375 -3.765625 Z M 0.3125 0 L 0.3125 -0.28125 L 0.828125 -0.28125 L 0.828125 -3.765625 L 0.3125 -3.765625 L 0.3125 -4.0625 L 1.921875 -4.0625 C 2.617188 -4.0625 3.160156 -3.878906 3.546875 -3.515625 C 3.941406 -3.160156 4.140625 -2.664062 4.140625 -2.03125 C 4.140625 -1.394531 3.941406 -0.894531 3.546875 -0.53125 C 3.160156 -0.175781 2.617188 0 1.921875 0 Z "/>
</g>
<g id="glyph-0-18">
<path d="M 1.0625 0 L 1.0625 -0.28125 L 1.578125 -0.28125 L 1.578125 -3.734375 L 0.390625 -3.734375 L 0.390625 -3.09375 L 0.046875 -3.09375 L 0.046875 -4.0625 L 3.65625 -4.0625 L 3.65625 -3.09375 L 3.328125 -3.09375 L 3.328125 -3.734375 L 2.125 -3.734375 L 2.125 -0.28125 L 2.640625 -0.28125 L 2.640625 0 Z "/>
</g>
<g id="glyph-0-19">
<path d="M 1.96875 -2.890625 L 2.90625 -2.890625 L 2.90625 -0.28125 L 3.375 -0.28125 L 3.375 0 L 2.40625 0 L 2.40625 -0.515625 C 2.3125 -0.316406 2.191406 -0.164062 2.046875 -0.0625 C 1.898438 0.03125 1.726562 0.078125 1.53125 0.078125 C 1.207031 0.078125 0.96875 -0.0078125 0.8125 -0.1875 C 0.664062 -0.375 0.59375 -0.660156 0.59375 -1.046875 L 0.59375 -2.59375 L 0.15625 -2.59375 L 0.15625 -2.890625 L 1.109375 -2.890625 L 1.109375 -1.203125 C 1.109375 -0.847656 1.148438 -0.601562 1.234375 -0.46875 C 1.316406 -0.34375 1.46875 -0.28125 1.6875 -0.28125 C 1.925781 -0.28125 2.101562 -0.363281 2.21875 -0.53125 C 2.34375 -0.707031 2.40625 -0.957031 2.40625 -1.28125 L 2.40625 -2.59375 L 1.96875 -2.59375 Z "/>
</g>
</g>
</defs>
<g fill="rgb(24.705882%, 72.54902%, 31.372549%)" fill-opacity="1">
<use xlink:href="#glyph-0-0" x="30" y="25.157227"/>
<use xlink:href="#glyph-0-1" x="36" y="25.157227"/>
<use xlink:href="#glyph-0-2" x="40" y="25.157227"/>
<use xlink:href="#glyph-0-3" x="45" y="25.157227"/>
<use xlink:href="#glyph-0-4" x="47" y="25.157227"/>
<use xlink:href="#glyph-0-3" x="52" y="25.157227"/>
<use xlink:href="#glyph-0-0" x="54" y="25.157227"/>
<use xlink:href="#glyph-0-1" x="60" y="25.157227"/>
<use xlink:href="#glyph-0-5" x="64" y="25.157227"/>
<use xlink:href="#glyph-0-3" x="68" y="25.157227"/>
<use xlink:href="#glyph-0-3" x="70" y="25.157227"/>
<use xlink:href="#glyph-0-6" x="72" y="25.157227"/>
<use xlink:href="#glyph-0-3" x="77" y="25.157227"/>
<use xlink:href="#glyph-0-3" x="79" y="25.157227"/>
<use xlink:href="#glyph-0-7" x="81" y="25.157227"/>
<use xlink:href="#glyph-0-8" x="85" y="25.157227"/>
<use xlink:href="#glyph-0-9" x="88" y="25.157227"/>
<use xlink:href="#glyph-0-10" x="92" y="25.157227"/>
<use xlink:href="#glyph-0-11" x="94" y="25.157227"/>
<use xlink:href="#glyph-0-12" x="97" y="25.157227"/>
<use xlink:href="#glyph-0-13" x="100" y="25.157227"/>
<use xlink:href="#glyph-0-10" x="103" y="25.157227"/>
<use xlink:href="#glyph-0-14" x="105" y="25.157227"/>
<use xlink:href="#glyph-0-8" x="107" y="25.157227"/>
<use xlink:href="#glyph-0-9" x="110" y="25.157227"/>
<use xlink:href="#glyph-0-3" x="114" y="25.157227"/>
<use xlink:href="#glyph-0-15" x="116" y="25.157227"/>
<use xlink:href="#glyph-0-3" x="121" y="25.157227"/>
<use xlink:href="#glyph-0-5" x="123" y="25.157227"/>
<use xlink:href="#glyph-0-16" x="127" y="25.157227"/>
<use xlink:href="#glyph-0-17" x="131" y="25.157227"/>
<use xlink:href="#glyph-0-3" x="135" y="25.157227"/>
<use xlink:href="#glyph-0-18" x="137" y="25.157227"/>
<use xlink:href="#glyph-0-11" x="141" y="25.157227"/>
<use xlink:href="#glyph-0-19" x="144" y="25.157227"/>
<use xlink:href="#glyph-0-9" x="148" y="25.157227"/>
<use xlink:href="#glyph-0-13" x="152" y="25.157227"/>
<use xlink:href="#glyph-0-12" x="155" y="25.157227"/>
<use xlink:href="#glyph-0-10" x="158" y="25.157227"/>
<use xlink:href="#glyph-0-14" x="160" y="25.157227"/>
<use xlink:href="#glyph-0-8" x="162" y="25.157227"/>
<use xlink:href="#glyph-0-9" x="165" y="25.157227"/>
</g>
</svg>
