<?xml version="1.0" encoding="UTF-8"?>
<svg xmlns="http://www.w3.org/2000/svg" xmlns:xlink="http://www.w3.org/1999/xlink" width="3840" height="2160" viewBox="0 0 3840 2160">
<defs>
<g>
<g id="glyph-0-0">
<path d="M 2.4375 0 L 2.4375 -1.046875 L 4.875 -1.046875 L 4.875 -11.53125 L 2.171875 -9.9375 L 2.171875 -11.234375 L 5.421875 -13.203125 L 8.15625 -13.203125 L 8.15625 -1.046875 L 10.59375 -1.046875 L 10.59375 0 Z "/>
</g>
<g id="glyph-0-1">
<path d="M 8.265625 -6.90625 C 9.296875 -6.738281 10.078125 -6.359375 10.609375 -5.765625 C 11.148438 -5.171875 11.421875 -4.398438 11.421875 -3.453125 C 11.421875 -2.253906 10.96875 -1.335938 10.0625 -0.703125 C 9.164062 -0.0664062 7.867188 0.25 6.171875 0.25 C 4.472656 0.25 3.171875 -0.0664062 2.265625 -0.703125 C 1.367188 -1.335938 0.921875 -2.253906 0.921875 -3.453125 C 0.921875 -4.398438 1.1875 -5.171875 1.71875 -5.765625 C 2.257812 -6.359375 3.046875 -6.738281 4.078125 -6.90625 C 3.160156 -7.113281 2.476562 -7.460938 2.03125 -7.953125 C 1.582031 -8.441406 1.359375 -9.0625 1.359375 -9.8125 C 1.359375 -10.90625 1.765625 -11.742188 2.578125 -12.328125 C 3.398438 -12.910156 4.597656 -13.203125 6.171875 -13.203125 C 7.734375 -13.203125 8.925781 -12.910156 9.75 -12.328125 C 10.570312 -11.742188 10.984375 -10.90625 10.984375 -9.8125 C 10.984375 -9.0625 10.753906 -8.441406 10.296875 -7.953125 C 9.847656 -7.460938 9.171875 -7.113281 8.265625 -6.90625 Z M 7.625 -9.78125 C 7.625 -10.6875 7.515625 -11.3125 7.296875 -11.65625 C 7.078125 -12.007812 6.703125 -12.1875 6.171875 -12.1875 C 5.628906 -12.1875 5.25 -12.007812 5.03125 -11.65625 C 4.820312 -11.3125 4.71875 -10.6875 4.71875 -9.78125 C 4.71875 -8.863281 4.820312 -8.234375 5.03125 -7.890625 C 5.25 -7.554688 5.628906 -7.390625 6.171875 -7.390625 C 6.710938 -7.390625 7.085938 -7.554688 7.296875 -7.890625 C 7.515625 -8.234375 7.625 -8.863281 7.625 -9.78125 Z M 7.96875 -3.59375 C 7.96875 -4.65625 7.832031 -5.382812 7.5625 -5.78125 C 7.289062 -6.175781 6.828125 -6.375 6.171875 -6.375 C 5.503906 -6.375 5.035156 -6.175781 4.765625 -5.78125 C 4.503906 -5.382812 4.375 -4.65625 4.375 -3.59375 C 4.375 -2.519531 4.507812 -1.78125 4.78125 -1.375 C 5.050781 -0.96875 5.515625 -0.765625 6.171875 -0.765625 C 6.828125 -0.765625 7.289062 -0.96875 7.5625 -1.375 C 7.832031 -1.78125 7.96875 -2.519531 7.96875 -3.59375 Z "/>
</g>
<g id="glyph-0-2">
<path d="M 6.1875 -0.765625 C 6.882812 -0.765625 7.359375 -1.078125 7.609375 -1.703125 C 7.867188 -2.335938 8 -3.925781 8 -6.46875 C 8 -8.988281 7.867188 -10.570312 7.609375 -11.21875 C 7.359375 -11.863281 6.882812 -12.1875 6.1875 -12.1875 C 5.5 -12.1875 5.023438 -11.867188 4.765625 -11.234375 C 4.503906 -10.597656 4.375 -9.007812 4.375 -6.46875 C 4.375 -3.925781 4.503906 -2.335938 4.765625 -1.703125 C 5.023438 -1.078125 5.5 -0.765625 6.1875 -0.765625 Z M 6.1875 0.25 C 4.457031 0.25 3.128906 -0.328125 2.203125 -1.484375 C 1.285156 -2.640625 0.828125 -4.300781 0.828125 -6.46875 C 0.828125 -8.632812 1.285156 -10.296875 2.203125 -11.453125 C 3.128906 -12.617188 4.457031 -13.203125 6.1875 -13.203125 C 7.914062 -13.203125 9.238281 -12.617188 10.15625 -11.453125 C 11.070312 -10.296875 11.53125 -8.632812 11.53125 -6.46875 C 11.53125 -4.300781 11.070312 -2.640625 10.15625 -1.484375 C 9.238281 -0.328125 7.914062 0.25 6.1875 0.25 Z "/>
</g>
</g>
</defs>
<g fill="rgb(34.509804%, 65.098039%, 100%)" fill-opacity="1">
<use xlink:href="#glyph-0-0" x="30" y="36.692383"/>
<use xlink:href="#glyph-0-1" x="42" y="36.692383"/>
<use xlink:href="#glyph-0-2" x="54" y="36.692383"/>
</g>
</svg>
