<?xml version="1.0" encoding="UTF-8"?>
<svg xmlns="http://www.w3.org/2000/svg" xmlns:xlink="http://www.w3.org/1999/xlink" width="854" height="480" viewBox="0 0 854 480">
<defs>
<g>
<g id="glyph-0-0">
<path d="M 1.109375 0 L 1.109375 -0.359375 L 1.703125 -0.359375 L 1.703125 -4.046875 L 0.484375 -4.046875 L 0.484375 -3.34375 L 0.0625 -3.34375 L 0.0625 -4.453125 L 4.484375 -4.453125 L 4.484375 -3.34375 L 4.078125 -3.34375 L 4.078125 -4.046875 L 2.859375 -4.046875 L 2.859375 -0.359375 L 3.453125 -0.359375 L 3.453125 0 Z "/>
</g>
<g id="glyph-0-1">
<path d="M 2.65625 -0.28125 C 3.039062 -0.28125 3.320312 -0.4375 3.5 -0.75 C 3.6875 -1.070312 3.78125 -1.5625 3.78125 -2.21875 C 3.78125 -2.882812 3.6875 -3.375 3.5 -3.6875 C 3.320312 -4.007812 3.039062 -4.171875 2.65625 -4.171875 C 2.28125 -4.171875 2 -4.007812 1.8125 -3.6875 C 1.625 -3.363281 1.53125 -2.875 1.53125 -2.21875 C 1.53125 -1.570312 1.625 -1.085938 1.8125 -0.765625 C 2 -0.441406 2.28125 -0.28125 2.65625 -0.28125 Z M 2.65625 0.09375 C 1.90625 0.09375 1.316406 -0.109375 0.890625 -0.515625 C 0.460938 -0.929688 0.25 -1.5 0.25 -2.21875 C 0.25 -2.9375 0.460938 -3.5 0.890625 -3.90625 C 1.316406 -4.320312 1.90625 -4.53125 2.65625 -4.53125 C 3.40625 -4.53125 3.992188 -4.328125 4.421875 -3.921875 C 4.847656 -3.515625 5.0625 -2.945312 5.0625 -2.21875 C 5.0625 -1.5 4.847656 -0.929688 4.421875 -0.515625 C 3.992188 -0.109375 3.40625 0.09375 2.65625 0.09375 Z "/>
</g>
<g id="glyph-0-2">
<path d="M -0.046875 0 L -0.046875 -0.359375 L 0.3125 -0.359375 L 2 -4.453125 L 2.703125 -4.453125 L 4.390625 -0.359375 L 4.8125 -0.359375 L 4.8125 0 L 2.71875 0 L 2.71875 -0.359375 L 3.15625 -0.359375 L 2.796875 -1.265625 L 1.125 -1.265625 L 0.75 -0.359375 L 1.28125 -0.359375 L 1.28125 0 Z M 1.265625 -1.625 L 2.640625 -1.625 L 1.953125 -3.328125 Z "/>
</g>
<g id="glyph-0-3">
<path d="M 0.28125 0 L 0.28125 -0.359375 L 0.859375 -0.359375 L 0.859375 -4.09375 L 0.28125 -4.09375 L 0.28125 -4.453125 L 2.578125 -4.453125 L 2.578125 -4.09375 L 2 -4.09375 L 2 -0.40625 L 3.765625 -0.40625 L 3.765625 -1.109375 L 4.15625 -1.109375 L 4.15625 0 Z "/>
</g>
<g id="glyph-0-4">
<path d="M 0.5625 -2.421875 C 0.5625 -2.578125 0.613281 -2.710938 0.71875 -2.828125 C 0.832031 -2.941406 0.96875 -3 1.125 -3 C 1.28125 -3 1.410156 -2.941406 1.515625 -2.828125 C 1.628906 -2.710938 1.6875 -2.578125 1.6875 -2.421875 C 1.6875 -2.265625 1.628906 -2.128906 1.515625 -2.015625 C 1.410156 -1.910156 1.28125 -1.859375 1.125 -1.859375 C 0.96875 -1.859375 0.832031 -1.910156 0.71875 -2.015625 C 0.613281 -2.128906 0.5625 -2.265625 0.5625 -2.421875 Z M 0.5625 -0.484375 C 0.5625 -0.640625 0.613281 -0.769531 0.71875 -0.875 C 0.832031 -0.988281 0.96875 -1.046875 1.125 -1.046875 C 1.28125 -1.046875 1.410156 -0.988281 1.515625 -0.875 C 1.628906 -0.769531 1.6875 -0.640625 1.6875 -0.484375 C 1.6875 -0.328125 1.628906 -0.191406 1.515625 -0.078125 C 1.410156 0.0351562 1.28125 0.09375 1.125 0.09375 C 0.96875 0.09375 0.832031 0.0351562 0.71875 -0.078125 C 0.613281 -0.191406 0.5625 -0.328125 0.5625 -0.484375 Z "/>
</g>
<g id="glyph-0-5">
</g>
<g id="glyph-0-6">
<path d="M 0.84375 0 L 0.84375 -0.359375 L 1.671875 -0.359375 L 1.671875 -3.96875 L 0.75 -3.421875 L 0.75 -3.859375 L 1.859375 -4.53125 L 2.796875 -4.53125 L 2.796875 -0.359375 L 3.640625 -0.359375 L 3.640625 0 Z "/>
</g>
<g id="glyph-0-7">
<path d="M 2.84375 -2.375 C 3.195312 -2.3125 3.460938 -2.175781 3.640625 -1.96875 C 3.828125 -1.769531 3.921875 -1.507812 3.921875 -1.1875 C 3.921875 -0.769531 3.765625 -0.453125 3.453125 -0.234375 C 3.148438 -0.015625 2.707031 0.09375 2.125 0.09375 C 1.539062 0.09375 1.09375 -0.015625 0.78125 -0.234375 C 0.46875 -0.453125 0.3125 -0.769531 0.3125 -1.1875 C 0.3125 -1.507812 0.40625 -1.769531 0.59375 -1.96875 C 0.78125 -2.175781 1.050781 -2.3125 1.40625 -2.375 C 1.09375 -2.445312 0.859375 -2.566406 0.703125 -2.734375 C 0.546875 -2.898438 0.46875 -3.113281 0.46875 -3.375 C 0.46875 -3.75 0.609375 -4.035156 0.890625 -4.234375 C 1.171875 -4.429688 1.582031 -4.53125 2.125 -4.53125 C 2.65625 -4.53125 3.0625 -4.429688 3.34375 -4.234375 C 3.632812 -4.035156 3.78125 -3.75 3.78125 -3.375 C 3.78125 -3.113281 3.703125 -2.898438 3.546875 -2.734375 C 3.390625 -2.566406 3.15625 -2.445312 2.84375 -2.375 Z M 2.625 -3.359375 C 2.625 -3.671875 2.582031 -3.882812 2.5 -4 C 2.425781 -4.125 2.300781 -4.1875 2.125 -4.1875 C 1.9375 -4.1875 1.804688 -4.125 1.734375 -4 C 1.660156 -3.882812 1.625 -3.671875 1.625 -3.359375 C 1.625 -3.046875 1.660156 -2.832031 1.734375 -2.71875 C 1.804688 -2.601562 1.9375 -2.546875 2.125 -2.546875 C 2.300781 -2.546875 2.425781 -2.601562 2.5 -2.71875 C 2.582031 -2.832031 2.625 -3.046875 2.625 -3.359375 Z M 2.734375 -1.234375 C 2.734375 -1.597656 2.6875 -1.847656 2.59375 -1.984375 C 2.507812 -2.117188 2.351562 -2.1875 2.125 -2.1875 C 1.894531 -2.1875 1.734375 -2.117188 1.640625 -1.984375 C 1.546875 -1.847656 1.5 -1.597656 1.5 -1.234375 C 1.5 -0.867188 1.546875 -0.613281 1.640625 -0.46875 C 1.734375 -0.332031 1.894531 -0.265625 2.125 -0.265625 C 2.34375 -0.265625 2.5 -0.332031 2.59375 -0.46875 C 2.6875 -0.613281 2.734375 -0.867188 2.734375 -1.234375 Z "/>
</g>
<g id="glyph-0-8">
<path d="M 2.125 -0.265625 C 2.363281 -0.265625 2.523438 -0.367188 2.609375 -0.578125 C 2.703125 -0.796875 2.75 -1.34375 2.75 -2.21875 C 2.75 -3.082031 2.703125 -3.625 2.609375 -3.84375 C 2.523438 -4.070312 2.363281 -4.1875 2.125 -4.1875 C 1.882812 -4.1875 1.71875 -4.078125 1.625 -3.859375 C 1.539062 -3.640625 1.5 -3.09375 1.5 -2.21875 C 1.5 -1.34375 1.539062 -0.796875 1.625 -0.578125 C 1.71875 -0.367188 1.882812 -0.265625 2.125 -0.265625 Z M 2.125 0.09375 C 1.53125 0.09375 1.070312 -0.101562 0.75 -0.5 C 0.4375 -0.90625 0.28125 -1.476562 0.28125 -2.21875 C 0.28125 -2.96875 0.4375 -3.539062 0.75 -3.9375 C 1.070312 -4.332031 1.53125 -4.53125 2.125 -4.53125 C 2.71875 -4.53125 3.171875 -4.332031 3.484375 -3.9375 C 3.804688 -3.539062 3.96875 -2.96875 3.96875 -2.21875 C 3.96875 -1.476562 3.804688 -0.90625 3.484375 -0.5 C 3.171875 -0.101562 2.71875 0.09375 2.125 0.09375 Z "/>
</g>
<g id="glyph-0-9">
<path d="M 1.5625 -4.453125 L 2.234375 -4.453125 L 0.65625 0.5625 L 0 0.5625 Z "/>
</g>
<g id="glyph-0-10">
<path d="M 4.203125 -3.0625 C 4.109375 -3.445312 3.957031 -3.726562 3.75 -3.90625 C 3.539062 -4.082031 3.25 -4.171875 2.875 -4.171875 C 2.414062 -4.171875 2.078125 -4.015625 1.859375 -3.703125 C 1.640625 -3.390625 1.53125 -2.894531 1.53125 -2.21875 C 1.53125 -1.550781 1.632812 -1.0625 1.84375 -0.75 C 2.050781 -0.4375 2.375 -0.28125 2.8125 -0.28125 C 2.976562 -0.28125 3.128906 -0.296875 3.265625 -0.328125 C 3.410156 -0.367188 3.546875 -0.425781 3.671875 -0.5 L 3.671875 -1.71875 L 3.125 -1.71875 L 3.125 -2.078125 L 4.734375 -2.078125 L 4.734375 -0.375 C 4.398438 -0.21875 4.066406 -0.0976562 3.734375 -0.015625 C 3.398438 0.0546875 3.0625 0.09375 2.71875 0.09375 C 1.945312 0.09375 1.34375 -0.113281 0.90625 -0.53125 C 0.46875 -0.945312 0.25 -1.507812 0.25 -2.21875 C 0.25 -2.9375 0.46875 -3.5 0.90625 -3.90625 C 1.34375 -4.320312 1.945312 -4.53125 2.71875 -4.53125 C 3.03125 -4.53125 3.335938 -4.5 3.640625 -4.4375 C 3.953125 -4.375 4.265625 -4.28125 4.578125 -4.15625 L 4.578125 -3.0625 Z "/>
</g>
<g id="glyph-0-11">
<path d="M 0.78125 -4.09375 L 0.203125 -4.09375 L 0.203125 -4.453125 L 2.5 -4.453125 L 2.5 -4.09375 L 1.9375 -4.09375 L 1.9375 -1.859375 C 1.9375 -1.304688 2.019531 -0.914062 2.1875 -0.6875 C 2.363281 -0.46875 2.660156 -0.359375 3.078125 -0.359375 C 3.484375 -0.359375 3.769531 -0.46875 3.9375 -0.6875 C 4.113281 -0.914062 4.203125 -1.304688 4.203125 -1.859375 L 4.203125 -4.09375 L 3.640625 -4.09375 L 3.640625 -4.453125 L 5.1875 -4.453125 L 5.1875 -4.09375 L 4.625 -4.09375 L 4.625 -1.796875 C 4.625 -1.117188 4.472656 -0.632812 4.171875 -0.34375 C 3.878906 -0.0507812 3.390625 0.09375 2.703125 0.09375 C 2.015625 0.09375 1.519531 -0.0507812 1.21875 -0.34375 C 0.925781 -0.644531 0.78125 -1.132812 0.78125 -1.8125 Z "/>
</g>
<g id="glyph-0-12">
<path d="M 0.265625 0 L 0.265625 -0.359375 L 0.84375 -0.359375 L 0.84375 -4.09375 L 0.265625 -4.09375 L 0.265625 -4.453125 L 1.65625 -4.453125 L 4.34375 -1.296875 L 4.34375 -4.09375 L 3.78125 -4.09375 L 3.78125 -4.453125 L 5.34375 -4.453125 L 5.34375 -4.09375 L 4.765625 -4.09375 L 4.765625 0 L 3.984375 0 L 1.265625 -3.21875 L 1.265625 -0.359375 L 1.828125 -0.359375 L 1.828125 0 Z "/>
</g>
<g id="glyph-0-13">
<path d="M 0.28125 0 L 0.28125 -0.359375 L 0.859375 -0.359375 L 0.859375 -4.09375 L 0.28125 -4.09375 L 0.28125 -4.453125 L 4.296875 -4.453125 L 4.296875 -3.40625 L 3.875 -3.40625 L 3.875 -4.046875 L 2 -4.046875 L 2 -2.609375 L 3.171875 -2.609375 L 3.171875 -3.1875 L 3.578125 -3.1875 L 3.578125 -1.640625 L 3.171875 -1.640625 L 3.171875 -2.203125 L 2 -2.203125 L 2 -0.40625 L 3.9375 -0.40625 L 3.9375 -1.046875 L 4.34375 -1.046875 L 4.34375 0 Z "/>
</g>
<g id="glyph-0-14">
<path d="M 0.46875 -0.21875 L 0.46875 -1.265625 L 0.84375 -1.265625 C 0.90625 -0.929688 1.039062 -0.679688 1.25 -0.515625 C 1.46875 -0.359375 1.769531 -0.28125 2.15625 -0.28125 C 2.457031 -0.28125 2.6875 -0.335938 2.84375 -0.453125 C 3.007812 -0.566406 3.09375 -0.738281 3.09375 -0.96875 C 3.09375 -1.144531 3.035156 -1.28125 2.921875 -1.375 C 2.816406 -1.476562 2.59375 -1.570312 2.25 -1.65625 L 1.59375 -1.828125 C 1.15625 -1.941406 0.847656 -2.097656 0.671875 -2.296875 C 0.492188 -2.492188 0.40625 -2.773438 0.40625 -3.140625 C 0.40625 -3.578125 0.550781 -3.914062 0.84375 -4.15625 C 1.132812 -4.40625 1.546875 -4.53125 2.078125 -4.53125 C 2.335938 -4.53125 2.609375 -4.507812 2.890625 -4.46875 C 3.171875 -4.425781 3.460938 -4.359375 3.765625 -4.265625 L 3.765625 -3.28125 L 3.390625 -3.28125 C 3.328125 -3.59375 3.195312 -3.816406 3 -3.953125 C 2.8125 -4.097656 2.535156 -4.171875 2.171875 -4.171875 C 1.878906 -4.171875 1.65625 -4.117188 1.5 -4.015625 C 1.351562 -3.910156 1.28125 -3.757812 1.28125 -3.5625 C 1.28125 -3.375 1.332031 -3.234375 1.4375 -3.140625 C 1.539062 -3.046875 1.796875 -2.945312 2.203125 -2.84375 L 2.859375 -2.671875 C 3.273438 -2.566406 3.578125 -2.40625 3.765625 -2.1875 C 3.953125 -1.96875 4.046875 -1.664062 4.046875 -1.28125 C 4.046875 -0.832031 3.890625 -0.488281 3.578125 -0.25 C 3.265625 -0.0195312 2.804688 0.09375 2.203125 0.09375 C 1.921875 0.09375 1.632812 0.0664062 1.34375 0.015625 C 1.0625 -0.0351562 0.769531 -0.113281 0.46875 -0.21875 Z "/>
</g>
<g id="glyph-0-15">
<path d="M 1.421875 -4.671875 L 1.421875 1.4375 L 0.78125 1.4375 L 0.78125 -4.671875 Z "/>
</g>
<g id="glyph-0-16">
<path d="M 3.75 -3.703125 L 1.90625 0 L 1.296875 0 L 3.09375 -3.609375 L 0.890625 -3.609375 L 0.890625 -3 L 0.484375 -3 L 0.484375 -4.453125 L 3.75 -4.453125 Z "/>
</g>
<g id="glyph-0-17">
<path d="M 3.25 -2.171875 C 3.425781 -2.148438 3.570312 -2.09375 3.6875 -2 C 3.8125 -1.90625 3.914062 -1.773438 4 -1.609375 L 4.65625 -0.359375 L 5.109375 -0.359375 L 5.109375 0 L 3.640625 0 L 2.9375 -1.34375 C 2.800781 -1.625 2.679688 -1.800781 2.578125 -1.875 C 2.484375 -1.957031 2.351562 -2 2.1875 -2 L 2 -2 L 2 -0.359375 L 2.578125 -0.359375 L 2.578125 0 L 0.28125 0 L 0.28125 -0.359375 L 0.859375 -0.359375 L 0.859375 -4.09375 L 0.28125 -4.09375 L 0.28125 -4.453125 L 2.828125 -4.453125 C 3.347656 -4.453125 3.75 -4.347656 4.03125 -4.140625 C 4.3125 -3.929688 4.453125 -3.632812 4.453125 -3.25 C 4.453125 -2.945312 4.347656 -2.703125 4.140625 -2.515625 C 3.941406 -2.335938 3.644531 -2.222656 3.25 -2.171875 Z M 2 -2.34375 L 2.390625 -2.34375 C 2.671875 -2.34375 2.882812 -2.414062 3.03125 -2.5625 C 3.1875 -2.71875 3.265625 -2.9375 3.265625 -3.21875 C 3.265625 -3.5 3.1875 -3.710938 3.03125 -3.859375 C 2.882812 -4.015625 2.671875 -4.09375 2.390625 -4.09375 L 2 -4.09375 Z "/>
</g>
</g>
</defs>
<g fill="rgb(24.705882%, 72.54902%, 31.372549%)" fill-opacity="1">
<use xlink:href="#glyph-0-0" x="30" y="25.737305"/>
<use xlink:href="#glyph-0-1" x="35" y="25.737305"/>
<use xlink:href="#glyph-0-0" x="40" y="25.737305"/>
<use xlink:href="#glyph-0-2" x="44" y="25.737305"/>
<use xlink:href="#glyph-0-3" x="49" y="25.737305"/>
<use xlink:href="#glyph-0-4" x="53" y="25.737305"/>
<use xlink:href="#glyph-0-5" x="55" y="25.737305"/>
<use xlink:href="#glyph-0-6" x="57" y="25.737305"/>
<use xlink:href="#glyph-0-7" x="61" y="25.737305"/>
<use xlink:href="#glyph-0-8" x="65" y="25.737305"/>
<use xlink:href="#glyph-0-9" x="69" y="25.737305"/>
<use xlink:href="#glyph-0-6" x="71" y="25.737305"/>
<use xlink:href="#glyph-0-7" x="75" y="25.737305"/>
<use xlink:href="#glyph-0-8" x="79" y="25.737305"/>
<use xlink:href="#glyph-0-5" x="83" y="25.737305"/>
<use xlink:href="#glyph-0-10" x="85" y="25.737305"/>
<use xlink:href="#glyph-0-2" x="90" y="25.737305"/>
<use xlink:href="#glyph-0-11" x="95" y="25.737305"/>
<use xlink:href="#glyph-0-12" x="100" y="25.737305"/>
<use xlink:href="#glyph-0-0" x="106" y="25.737305"/>
<use xlink:href="#glyph-0-3" x="111" y="25.737305"/>
<use xlink:href="#glyph-0-13" x="115" y="25.737305"/>
<use xlink:href="#glyph-0-0" x="120" y="25.737305"/>
<use xlink:href="#glyph-0-14" x="125" y="25.737305"/>
<use xlink:href="#glyph-0-5" x="129" y="25.737305"/>
<use xlink:href="#glyph-0-5" x="131" y="25.737305"/>
<use xlink:href="#glyph-0-15" x="133" y="25.737305"/>
<use xlink:href="#glyph-0-5" x="135" y="25.737305"/>
<use xlink:href="#glyph-0-5" x="137" y="25.737305"/>
<use xlink:href="#glyph-0-6" x="139" y="25.737305"/>
<use xlink:href="#glyph-0-16" x="143" y="25.737305"/>
<use xlink:href="#glyph-0-8" x="147" y="25.737305"/>
<use xlink:href="#glyph-0-9" x="151" y="25.737305"/>
<use xlink:href="#glyph-0-6" x="153" y="25.737305"/>
<use xlink:href="#glyph-0-16" x="157" y="25.737305"/>
<use xlink:href="#glyph-0-8" x="161" y="25.737305"/>
<use xlink:href="#glyph-0-5" x="165" y="25.737305"/>
<use xlink:href="#glyph-0-17" x="167" y="25.737305"/>
<use xlink:href="#glyph-0-11" x="172" y="25.737305"/>
<use xlink:href="#glyph-0-14" x="177" y="25.737305"/>
<use xlink:href="#glyph-0-0" x="181" y="25.737305"/>
<use xlink:href="#glyph-0-5" x="186" y="25.737305"/>
<use xlink:href="#glyph-0-0" x="188" y="25.737305"/>
<use xlink:href="#glyph-0-13" x="193" y="25.737305"/>
<use xlink:href="#glyph-0-14" x="198" y="25.737305"/>
<use xlink:href="#glyph-0-0" x="202" y="25.737305"/>
<use xlink:href="#glyph-0-14" x="207" y="25.737305"/>
</g>
</svg>
